<svg width="24" height="24" viewBox="0 0 24 24" fill="none" xmlns="http://www.w3.org/2000/svg">
<path d="M4.22222 4C2.99653 4 2 4.99653 2 6.22222V17.3333C2 18.559 2.99653 19.5556 4.22222 19.5556H19.7778C21.0035 19.5556 22 18.559 22 17.3333V6.22222C22 4.99653 21.0035 4 19.7778 4H4.22222ZM7 12.8889H9.22222C10.7569 12.8889 12 14.1319 12 15.6667C12 15.9722 11.75 16.2222 11.4444 16.2222H4.77778C4.47222 16.2222 4.22222 15.9722 4.22222 15.6667C4.22222 14.1319 5.46528 12.8889 7 12.8889ZM5.88889 9.55556C5.88889 8.96619 6.12302 8.40095 6.53976 7.98421C6.95651 7.56746 7.52174 7.33333 8.11111 7.33333C8.70048 7.33333 9.26571 7.56746 9.68246 7.98421C10.0992 8.40095 10.3333 8.96619 10.3333 9.55556C10.3333 10.1449 10.0992 10.7102 9.68246 11.1269C9.26571 11.5437 8.70048 11.7778 8.11111 11.7778C7.52174 11.7778 6.95651 11.5437 6.53976 11.1269C6.12302 10.7102 5.88889 10.1449 5.88889 9.55556ZM14.7778 8.44444H19.2222C19.5278 8.44444 19.7778 8.69444 19.7778 9C19.7778 9.30556 19.5278 9.55556 19.2222 9.55556H14.7778C14.4722 9.55556 14.2222 9.30556 14.2222 9C14.2222 8.69444 14.4722 8.44444 14.7778 8.44444ZM14.7778 10.6667H19.2222C19.5278 10.6667 19.7778 10.9167 19.7778 11.2222C19.7778 11.5278 19.5278 11.7778 19.2222 11.7778H14.7778C14.4722 11.7778 14.2222 11.5278 14.2222 11.2222C14.2222 10.9167 14.4722 10.6667 14.7778 10.6667ZM14.7778 12.8889H19.2222C19.5278 12.8889 19.7778 13.1389 19.7778 13.4444C19.7778 13.75 19.5278 14 19.2222 14H14.7778C14.4722 14 14.2222 13.75 14.2222 13.4444C14.2222 13.1389 14.4722 12.8889 14.7778 12.8889Z" fill="#13131D"/>
</svg>
