<svg width="24" height="24" viewBox="0 0 24 24" fill="none" xmlns="http://www.w3.org/2000/svg">
<path d="M5.46154 2C4.10385 2 3 3.12109 3 4.5V19.5C3 20.8789 4.10385 22 5.46154 22H16.5385C17.8962 22 19 20.8789 19 19.5V4.5C19 3.12109 17.8962 2 16.5385 2H5.46154ZM9.76923 13.25H12.2308C13.9308 13.25 15.3077 14.6484 15.3077 16.375C15.3077 16.7188 15.0308 17 14.6923 17H7.30769C6.96923 17 6.69231 16.7188 6.69231 16.375C6.69231 14.6484 8.06923 13.25 9.76923 13.25ZM8.53846 9.5C8.53846 8.83696 8.7978 8.20107 9.25943 7.73223C9.72106 7.26339 10.3472 7 11 7C11.6528 7 12.2789 7.26339 12.7406 7.73223C13.2022 8.20107 13.4615 8.83696 13.4615 9.5C13.4615 10.163 13.2022 10.7989 12.7406 11.2678C12.2789 11.7366 11.6528 12 11 12C10.3472 12 9.72106 11.7366 9.25943 11.2678C8.7978 10.7989 8.53846 10.163 8.53846 9.5ZM21.4615 5.125C21.4615 4.78125 21.1846 4.5 20.8462 4.5C20.5077 4.5 20.2308 4.78125 20.2308 5.125V7.625C20.2308 7.96875 20.5077 8.25 20.8462 8.25C21.1846 8.25 21.4615 7.96875 21.4615 7.625V5.125ZM20.8462 9.5C20.5077 9.5 20.2308 9.78125 20.2308 10.125V12.625C20.2308 12.9688 20.5077 13.25 20.8462 13.25C21.1846 13.25 21.4615 12.9688 21.4615 12.625V10.125C21.4615 9.78125 21.1846 9.5 20.8462 9.5ZM21.4615 15.125C21.4615 14.7812 21.1846 14.5 20.8462 14.5C20.5077 14.5 20.2308 14.7812 20.2308 15.125V17.625C20.2308 17.9688 20.5077 18.25 20.8462 18.25C21.1846 18.25 21.4615 17.9688 21.4615 17.625V15.125Z" fill="#13131D"/>
</svg>
