<?xml version="1.0" encoding="utf-8"?>
<svg viewBox="0 0 24 24" width="24px" height="24px" fill="none" xmlns="http://www.w3.org/2000/svg">
  <path d="M 21.581 12.584 C 22.14 12.026 22.14 11.12 21.581 10.562 L 14.438 3.419 C 13.88 2.86 12.974 2.86 12.416 3.419 C 11.858 3.977 11.858 4.883 12.416 5.441 L 17.126 10.147 L 3.429 10.147 C 2.638 10.147 2 10.785 2 11.575 C 2 12.366 2.638 13.004 3.429 13.004 L 17.121 13.004 L 12.42 17.71 C 11.862 18.268 11.862 19.174 12.42 19.732 C 12.978 20.29 13.885 20.29 14.443 19.732 L 21.586 12.589 L 21.581 12.584 Z" fill="#13131D" style="" transform="matrix(0, 1, -1, 0, 23.575201034546, -0.425001174212)"/>
</svg>