<svg width="24" height="24" viewBox="0 0 24 24" fill="none" xmlns="http://www.w3.org/2000/svg">
<path d="M11.5096 2.0996L2.76062 5.84916C2.21381 6.0835 1.90915 6.66937 2.03023 7.24743C2.15131 7.82549 2.65907 8.24731 3.25275 8.24731V8.55978C3.25275 9.07925 3.67067 9.49717 4.19014 9.49717H19.8133C20.3328 9.49717 20.7507 9.07925 20.7507 8.55978V8.24731C21.3444 8.24731 21.856 7.82939 21.9732 7.24743C22.0904 6.66547 21.7857 6.0796 21.2428 5.84916L12.4938 2.0996C12.1814 1.9668 11.8221 1.9668 11.5096 2.0996ZM7.00231 10.747H4.5026V18.4141C4.47917 18.4258 4.45573 18.4414 4.4323 18.4571L2.55752 19.7069C2.10054 20.0116 1.89353 20.5818 2.05367 21.1091C2.21381 21.6364 2.70203 21.9957 3.25275 21.9957H20.7507C21.3014 21.9957 21.7857 21.6364 21.9459 21.1091C22.106 20.5818 21.9029 20.0116 21.442 19.7069L19.5672 18.4571C19.5438 18.4414 19.5204 18.4297 19.4969 18.4141V10.747H17.0011V18.2461H15.4388V10.747H12.9391V18.2461H11.0643V10.747H8.56462V18.2461H7.00231V10.747ZM12.0017 4.49775C12.3332 4.49775 12.6511 4.62943 12.8855 4.86383C13.1199 5.09822 13.2516 5.41613 13.2516 5.74761C13.2516 6.07909 13.1199 6.39699 12.8855 6.63139C12.6511 6.86578 12.3332 6.99746 12.0017 6.99746C11.6702 6.99746 11.3523 6.86578 11.1179 6.63139C10.8835 6.39699 10.7519 6.07909 10.7519 5.74761C10.7519 5.41613 10.8835 5.09822 11.1179 4.86383C11.3523 4.62943 11.6702 4.49775 12.0017 4.49775Z" fill="#13131D"/>
</svg>
