<svg width="24" height="24" viewBox="0 0 24 24" fill="none" xmlns="http://www.w3.org/2000/svg">
<path d="M11.7493 2C11.0578 2 10.4993 2.55859 10.4993 3.25V4C7.64769 4.57812 5.49925 7.10156 5.49925 10.125V10.8594C5.49925 12.6953 4.82347 14.4688 3.60472 15.8438L3.31566 16.168C2.98753 16.5352 2.90941 17.0625 3.10863 17.5117C3.30785 17.9609 3.75706 18.25 4.24925 18.25H19.2493C19.7414 18.25 20.1868 17.9609 20.3899 17.5117C20.593 17.0625 20.511 16.5352 20.1828 16.168L19.8938 15.8438C18.675 14.4688 17.9993 12.6992 17.9993 10.8594V10.125C17.9993 7.10156 15.8508 4.57812 12.9993 4V3.25C12.9993 2.55859 12.4407 2 11.7493 2ZM13.5188 21.2695C13.9875 20.8008 14.2493 20.1641 14.2493 19.5H11.7493H9.24925C9.24925 20.1641 9.51097 20.8008 9.97972 21.2695C10.4485 21.7383 11.0852 22 11.7493 22C12.4133 22 13.05 21.7383 13.5188 21.2695Z" fill="#13131D"/>
</svg>
