<svg width="24" height="24" viewBox="0 0 24 24" fill="none" xmlns="http://www.w3.org/2000/svg">
<path d="M16.3996 3.74248C16.6301 3.20734 16.4582 2.58236 15.9856 2.23863C15.5129 1.89489 14.8684 1.92614 14.427 2.30894L4.42739 11.0586C4.03677 11.4024 3.89615 11.9531 4.07974 12.4375C4.26333 12.9218 4.73206 13.25 5.25158 13.25H9.60689L6.60309 20.2575C6.37263 20.7927 6.5445 21.4176 7.01714 21.7614C7.48978 22.1051 8.13429 22.0739 8.57568 21.6911L18.5753 12.9414C18.9659 12.5976 19.1066 12.0469 18.923 11.5625C18.7394 11.0782 18.2746 10.754 17.7511 10.754H13.3958L16.3996 3.74248Z" fill="#13131D"/>
</svg>
