<svg width="24" height="24" viewBox="0 0 24 24" fill="none" xmlns="http://www.w3.org/2000/svg">
<path d="M15 17C15.375 15.7539 16.1523 14.6914 16.9219 13.6328C17.125 13.3555 17.3281 13.0781 17.5234 12.7969C18.2969 11.6836 18.75 10.3359 18.75 8.87891C18.75 5.07812 15.6719 2 11.875 2C8.07812 2 5 5.07812 5 8.875C5 10.332 5.45313 11.6836 6.22656 12.793C6.42188 13.0742 6.625 13.3516 6.82812 13.6289C7.60156 14.6875 8.37891 15.7539 8.75 16.9961H15V17ZM11.875 22C13.6016 22 15 20.6016 15 18.875V18.25H8.75V18.875C8.75 20.6016 10.1484 22 11.875 22ZM8.75 8.875C8.75 9.21875 8.46875 9.5 8.125 9.5C7.78125 9.5 7.5 9.21875 7.5 8.875C7.5 6.45703 9.45703 4.5 11.875 4.5C12.2188 4.5 12.5 4.78125 12.5 5.125C12.5 5.46875 12.2188 5.75 11.875 5.75C10.1484 5.75 8.75 7.14844 8.75 8.875Z" fill="#13131D"/>
</svg>
