<svg width="24" height="24" viewBox="0 0 24 24" fill="none" xmlns="http://www.w3.org/2000/svg">
<path d="M8 2C8.69141 2 9.25 2.55859 9.25 3.25V4.5H14.25V3.25C14.25 2.55859 14.8086 2 15.5 2C16.1914 2 16.75 2.55859 16.75 3.25V4.5H18.625C19.6602 4.5 20.5 5.33984 20.5 6.375V8.25H3V6.375C3 5.33984 3.83984 4.5 4.875 4.5H6.75V3.25C6.75 2.55859 7.30859 2 8 2ZM3 9.5H20.5V20.125C20.5 21.1602 19.6602 22 18.625 22H4.875C3.83984 22 3 21.1602 3 20.125V9.5ZM5.5 12.625V13.875C5.5 14.2188 5.78125 14.5 6.125 14.5H7.375C7.71875 14.5 8 14.2188 8 13.875V12.625C8 12.2812 7.71875 12 7.375 12H6.125C5.78125 12 5.5 12.2812 5.5 12.625ZM10.5 12.625V13.875C10.5 14.2188 10.7812 14.5 11.125 14.5H12.375C12.7188 14.5 13 14.2188 13 13.875V12.625C13 12.2812 12.7188 12 12.375 12H11.125C10.7812 12 10.5 12.2812 10.5 12.625ZM16.125 12C15.7812 12 15.5 12.2812 15.5 12.625V13.875C15.5 14.2188 15.7812 14.5 16.125 14.5H17.375C17.7188 14.5 18 14.2188 18 13.875V12.625C18 12.2812 17.7188 12 17.375 12H16.125ZM5.5 17.625V18.875C5.5 19.2188 5.78125 19.5 6.125 19.5H7.375C7.71875 19.5 8 19.2188 8 18.875V17.625C8 17.2812 7.71875 17 7.375 17H6.125C5.78125 17 5.5 17.2812 5.5 17.625ZM11.125 17C10.7812 17 10.5 17.2812 10.5 17.625V18.875C10.5 19.2188 10.7812 19.5 11.125 19.5H12.375C12.7188 19.5 13 19.2188 13 18.875V17.625C13 17.2812 12.7188 17 12.375 17H11.125ZM15.5 17.625V18.875C15.5 19.2188 15.7812 19.5 16.125 19.5H17.375C17.7188 19.5 18 19.2188 18 18.875V17.625C18 17.2812 17.7188 17 17.375 17H16.125C15.7812 17 15.5 17.2812 15.5 17.625Z" fill="#13131D"/>
</svg>
