<svg width="24" height="24" viewBox="0 0 24 24" fill="none" xmlns="http://www.w3.org/2000/svg">
<path d="M4.22222 4C2.99653 4 2 4.99653 2 6.22222V7.33333H22V6.22222C22 4.99653 21.0035 4 19.7778 4H4.22222ZM22 10.6667H2V17.3333C2 18.559 2.99653 19.5556 4.22222 19.5556H19.7778C21.0035 19.5556 22 18.559 22 17.3333V10.6667ZM5.88889 15.1111H8.11111C8.41667 15.1111 8.66667 15.3611 8.66667 15.6667C8.66667 15.9722 8.41667 16.2222 8.11111 16.2222H5.88889C5.58333 16.2222 5.33333 15.9722 5.33333 15.6667C5.33333 15.3611 5.58333 15.1111 5.88889 15.1111ZM9.77778 15.6667C9.77778 15.3611 10.0278 15.1111 10.3333 15.1111H14.7778C15.0833 15.1111 15.3333 15.3611 15.3333 15.6667C15.3333 15.9722 15.0833 16.2222 14.7778 16.2222H10.3333C10.0278 16.2222 9.77778 15.9722 9.77778 15.6667Z" fill="#13131D"/>
</svg>
