<svg width="24" height="24" viewBox="0 0 24 24" fill="none" xmlns="http://www.w3.org/2000/svg">
<path d="M11.125 2H15.9727C16.4688 2 16.9453 2.19922 17.2969 2.55078L19.9492 5.20312C20.3008 5.55469 20.5 6.03125 20.5 6.52734V15.125C20.5 16.1602 19.6602 17 18.625 17H11.125C10.0898 17 9.25 16.1602 9.25 15.125V3.875C9.25 2.83984 10.0898 2 11.125 2ZM4.875 7H8V9.5H5.5V19.5H13V18.25H15.5V20.125C15.5 21.1602 14.6602 22 13.625 22H4.875C3.83984 22 3 21.1602 3 20.125V8.875C3 7.83984 3.83984 7 4.875 7Z" fill="#13131D"/>
</svg>
