<svg width="24" height="24" viewBox="0 0 24 24" fill="none" xmlns="http://www.w3.org/2000/svg">
<path d="M7.5 2C6.12109 2 5 3.12109 5 4.5V19.5C5 20.8789 6.12109 22 7.5 22H17.5C18.8789 22 20 20.8789 20 19.5V8.25H15C14.3086 8.25 13.75 7.69141 13.75 7V2H7.5ZM15 2V7H20L15 2ZM8.125 4.5H10.625C10.9688 4.5 11.25 4.78125 11.25 5.125C11.25 5.46875 10.9688 5.75 10.625 5.75H8.125C7.78125 5.75 7.5 5.46875 7.5 5.125C7.5 4.78125 7.78125 4.5 8.125 4.5ZM8.125 7H10.625C10.9688 7 11.25 7.28125 11.25 7.625C11.25 7.96875 10.9688 8.25 10.625 8.25H8.125C7.78125 8.25 7.5 7.96875 7.5 7.625C7.5 7.28125 7.78125 7 8.125 7ZM8.75 10.75H16.25C16.9414 10.75 17.5 11.3086 17.5 12V14.5C17.5 15.1914 16.9414 15.75 16.25 15.75H8.75C8.05859 15.75 7.5 15.1914 7.5 14.5V12C7.5 11.3086 8.05859 10.75 8.75 10.75ZM8.75 12V14.5H16.25V12H8.75ZM14.375 18.25H16.875C17.2188 18.25 17.5 18.5312 17.5 18.875C17.5 19.2188 17.2188 19.5 16.875 19.5H14.375C14.0312 19.5 13.75 19.2188 13.75 18.875C13.75 18.5312 14.0312 18.25 14.375 18.25Z" fill="#13131D"/>
</svg>
