<svg width="25" height="22" viewBox="0 0 25 22" fill="none" xmlns="http://www.w3.org/2000/svg">
<path d="M4.3999 3.043C4.3999 1.5853 5.59574 0.400146 7.06657 0.400146H17.7332C19.2041 0.400146 20.3999 1.5853 20.3999 3.043V18.9001H23.0666C23.8041 18.9001 24.3999 19.4907 24.3999 20.2216C24.3999 20.9525 23.8041 21.543 23.0666 21.543H18.3999H6.3999H1.73324C0.995736 21.543 0.399902 20.9525 0.399902 20.2216C0.399902 19.4907 0.995736 18.9001 1.73324 18.9001H4.3999V3.043ZM16.3999 12.293C16.7535 12.293 17.0927 12.1538 17.3427 11.906C17.5928 11.6582 17.7332 11.322 17.7332 10.9716C17.7332 10.6211 17.5928 10.285 17.3427 10.0372C17.0927 9.78937 16.7535 9.65015 16.3999 9.65015C16.0463 9.65015 15.7071 9.78937 15.4571 10.0372C15.207 10.285 15.0666 10.6211 15.0666 10.9716C15.0666 11.322 15.207 11.6582 15.4571 11.906C15.7071 12.1538 16.0463 12.293 16.3999 12.293Z" fill="#5F5F70"/>
</svg>
