<svg width="24" height="24" viewBox="0 0 24 24" fill="none" xmlns="http://www.w3.org/2000/svg">
<path d="M13.25 3.25C13.25 2.55859 12.6914 2 12 2C11.3086 2 10.75 2.55859 10.75 3.25V12.7305L7.88281 9.86328C7.39453 9.375 6.60156 9.375 6.11328 9.86328C5.625 10.3516 5.625 11.1445 6.11328 11.6328L11.1133 16.6328C11.6016 17.1211 12.3945 17.1211 12.8828 16.6328L17.8828 11.6328C18.3711 11.1445 18.3711 10.3516 17.8828 9.86328C17.3945 9.375 16.6016 9.375 16.1133 9.86328L13.25 12.7305V3.25ZM4.5 15.75C3.12109 15.75 2 16.8711 2 18.25V19.5C2 20.8789 3.12109 22 4.5 22H19.5C20.8789 22 22 20.8789 22 19.5V18.25C22 16.8711 20.8789 15.75 19.5 15.75H15.5352L13.7656 17.5195C12.7891 18.4961 11.207 18.4961 10.2305 17.5195L8.46484 15.75H4.5ZM18.875 17.9375C19.1236 17.9375 19.3621 18.0363 19.5379 18.2121C19.7137 18.3879 19.8125 18.6264 19.8125 18.875C19.8125 19.1236 19.7137 19.3621 19.5379 19.5379C19.3621 19.7137 19.1236 19.8125 18.875 19.8125C18.6264 19.8125 18.3879 19.7137 18.2121 19.5379C18.0363 19.3621 17.9375 19.1236 17.9375 18.875C17.9375 18.6264 18.0363 18.3879 18.2121 18.2121C18.3879 18.0363 18.6264 17.9375 18.875 17.9375Z" fill="#13131D"/>
</svg>
