<svg width="24" height="24" viewBox="0 0 24 24" fill="none" xmlns="http://www.w3.org/2000/svg">
<path d="M16.1831 2.73322L14.2904 4.6259L19.3741 9.70956L21.2668 7.81687C22.2444 6.83925 22.2444 5.25549 21.2668 4.27787L19.726 2.73322C18.7484 1.75559 17.1647 1.75559 16.187 2.73322H16.1831ZM13.4067 5.50968L4.29128 14.629C3.88459 15.0357 3.58739 15.5401 3.42315 16.0915L2.03883 20.7958C1.94107 21.1282 2.03101 21.4841 2.27346 21.7265C2.51592 21.969 2.87177 22.0589 3.20025 21.9651L7.90459 20.5808C8.45597 20.4165 8.96043 20.1193 9.36712 19.7126L18.4903 10.5933L13.4067 5.50968Z" fill="#13131D"/>
</svg>
