<svg width="24" height="24" viewBox="0 0 24 24" fill="none" xmlns="http://www.w3.org/2000/svg">
<path d="M11.5926 16.8148C10.905 16.8148 10.2456 17.088 9.75935 17.5742C9.27315 18.0604 9 18.7198 9 19.4074C9 20.095 9.27315 20.7544 9.75935 21.2406C10.2456 21.7269 10.905 22 11.5926 22C12.2802 22 12.9396 21.7269 13.4258 21.2406C13.912 20.7544 14.1852 20.095 14.1852 19.4074C14.1852 18.7198 13.912 18.0604 13.4258 17.5742C12.9396 17.088 12.2802 16.8148 11.5926 16.8148ZM11.5926 9.40741C10.905 9.40741 10.2456 9.68055 9.75935 10.1668C9.27315 10.653 9 11.3124 9 12C9 12.6876 9.27315 13.347 9.75935 13.8332C10.2456 14.3194 10.905 14.5926 11.5926 14.5926C12.2802 14.5926 12.9396 14.3194 13.4258 13.8332C13.912 13.347 14.1852 12.6876 14.1852 12C14.1852 11.3124 13.912 10.653 13.4258 10.1668C12.9396 9.68055 12.2802 9.40741 11.5926 9.40741ZM14.1852 4.59259C14.1852 3.90499 13.912 3.24556 13.4258 2.75935C12.9396 2.27315 12.2802 2 11.5926 2C10.905 2 10.2456 2.27315 9.75935 2.75935C9.27315 3.24556 9 3.90499 9 4.59259C9 5.28019 9.27315 5.93963 9.75935 6.42583C10.2456 6.91204 10.905 7.18518 11.5926 7.18518C12.2802 7.18518 12.9396 6.91204 13.4258 6.42583C13.912 5.93963 14.1852 5.28019 14.1852 4.59259Z" fill="#13131D"/>
</svg>
