<svg width="24" height="24" viewBox="0 0 24 24" fill="none" xmlns="http://www.w3.org/2000/svg">
<path fill-rule="evenodd" clip-rule="evenodd" d="M15.3333 2.83333C15.3333 2.3731 15.7064 2 16.1667 2L21.1667 2C21.6269 2 22 2.3731 22 2.83333V7.83333C22 8.29357 21.6269 8.66667 21.1667 8.66667C20.7064 8.66667 20.3333 8.29357 20.3333 7.83333V4.84518L15.9226 9.25592C15.5972 9.58136 15.0695 9.58136 14.7441 9.25592C14.4186 8.93049 14.4186 8.40285 14.7441 8.07741L19.1548 3.66667H16.1667C15.7064 3.66667 15.3333 3.29357 15.3333 2.83333ZM2 2.83333C2 2.3731 2.3731 2 2.83333 2H7.83333C8.29357 2 8.66667 2.3731 8.66667 2.83333C8.66667 3.29357 8.29357 3.66667 7.83333 3.66667H4.84518L9.25592 8.07741C9.58136 8.40285 9.58136 8.93049 9.25592 9.25592C8.93049 9.58136 8.40285 9.58136 8.07741 9.25592L3.66667 4.84518V7.83333C3.66667 8.29357 3.29357 8.66667 2.83333 8.66667C2.3731 8.66667 2 8.29357 2 7.83333V2.83333ZM14.7441 15.9226C14.4186 15.5972 14.4186 15.0695 14.7441 14.7441C15.0695 14.4186 15.5972 14.4186 15.9226 14.7441L20.3333 19.1548V16.1667C20.3333 15.7064 20.7064 15.3333 21.1667 15.3333C21.6269 15.3333 22 15.7064 22 16.1667V21.1667C22 21.6269 21.6269 22 21.1667 22H16.1667C15.7064 22 15.3333 21.6269 15.3333 21.1667C15.3333 20.7064 15.7064 20.3333 16.1667 20.3333H19.1548L14.7441 15.9226ZM9.25592 14.7441C9.58136 15.0695 9.58136 15.5972 9.25592 15.9226L4.84518 20.3333H7.83333C8.29357 20.3333 8.66667 20.7064 8.66667 21.1667C8.66667 21.6269 8.29357 22 7.83333 22H2.83333C2.3731 22 2 21.6269 2 21.1667V16.1667C2 15.7064 2.3731 15.3333 2.83333 15.3333C3.29357 15.3333 3.66667 15.7064 3.66667 16.1667V19.1548L8.07741 14.7441C8.40285 14.4186 8.93049 14.4186 9.25592 14.7441Z" fill="#13131D"/>
</svg>
