<svg width="24" height="24" viewBox="0 0 24 24" fill="none" xmlns="http://www.w3.org/2000/svg">
<path d="M7.93259 11.3571C7.92857 11.4656 7.92857 11.5701 7.92857 11.6786V12.3214C7.92857 12.4299 7.92857 12.5344 7.93259 12.6429H7.28571C6.57455 12.6429 6 13.2174 6 13.9286C6 14.6397 6.57455 15.2143 7.28571 15.2143H8.42277C9.61205 18.5853 12.8304 21 16.6071 21H17.5714C18.2826 21 18.8571 20.4254 18.8571 19.7143C18.8571 19.0031 18.2826 18.4286 17.5714 18.4286H16.6071C14.2808 18.4286 12.2598 17.1268 11.2272 15.2143H16.2857C16.9969 15.2143 17.5714 14.6397 17.5714 13.9286C17.5714 13.2174 16.9969 12.6429 16.2857 12.6429H10.508C10.504 12.5384 10.5 12.4299 10.5 12.3214V11.6786C10.5 11.5701 10.504 11.4616 10.508 11.3571H16.2857C16.9969 11.3571 17.5714 10.7826 17.5714 10.0714C17.5714 9.36027 16.9969 8.78571 16.2857 8.78571H11.2272C12.2598 6.87321 14.2808 5.57143 16.6071 5.57143H17.5714C18.2826 5.57143 18.8571 4.99688 18.8571 4.28571C18.8571 3.57455 18.2826 3 17.5714 3H16.6071C12.8304 3 9.61205 5.41473 8.42277 8.78571H7.28571C6.57455 8.78571 6 9.36027 6 10.0714C6 10.7826 6.57455 11.3571 7.28571 11.3571H7.93259Z" fill="#13131D"/>
</svg>
