<svg width="25" height="25" viewBox="0 0 25 25" fill="none" xmlns="http://www.w3.org/2000/svg">
<path d="M23.8514 0.743232C24.1983 1.02447 24.3999 1.45101 24.3999 1.90099V6.40077C24.3999 6.85075 24.1983 7.27729 23.8514 7.55853C23.5044 7.83976 23.045 7.95695 22.6043 7.86789L15.1031 6.36796C14.5311 6.25547 14.0857 5.82424 13.9451 5.27583H10.8977V6.907C12.6699 7.75071 13.8982 9.55531 13.8982 11.6505V18.4002H3.39653V11.6505C3.39653 9.55531 4.62485 7.75071 6.39701 6.907V5.55706C4.69986 6.07735 3.30276 7.28667 2.53858 8.86159C2.26666 9.41938 1.59155 9.65374 1.03365 9.38188C0.475745 9.11002 0.241332 8.43505 0.513251 7.87726C1.64781 5.54769 3.8044 3.80402 6.39701 3.23217V1.90099C6.39701 1.07134 7.06743 0.401061 7.89725 0.401061H9.39749C10.2273 0.401061 10.8977 1.07134 10.8977 1.90099V3.02593H13.9451C14.0857 2.47752 14.5311 2.04629 15.1031 1.92911L22.6043 0.429184C23.045 0.340126 23.4998 0.457308 23.8514 0.738544V0.743232ZM13.8982 19.9001V21.4C13.8982 23.0547 12.5527 24.3999 10.8977 24.3999H6.39701C4.74206 24.3999 3.39653 23.0547 3.39653 21.4V19.9001H13.8982ZM8.64737 4.90084C8.84631 4.90084 9.03711 4.82183 9.17778 4.68118C9.31846 4.54054 9.39749 4.34978 9.39749 4.15088C9.39749 3.95198 9.31846 3.76122 9.17778 3.62058C9.03711 3.47993 8.84631 3.40092 8.64737 3.40092C8.44843 3.40092 8.25763 3.47993 8.11696 3.62058C7.97628 3.76122 7.89725 3.95198 7.89725 4.15088C7.89725 4.34978 7.97628 4.54054 8.11696 4.68118C8.25763 4.82183 8.44843 4.90084 8.64737 4.90084Z" fill="#5F5F70"/>
</svg>
