<svg width="24" height="24" viewBox="0 0 24 24" fill="none" xmlns="http://www.w3.org/2000/svg">
<path d="M3.21265 4.15955C2.88766 3.9033 2.41579 3.96268 2.15955 4.28767C1.9033 4.61266 1.96268 5.08453 2.28767 5.34078L20.7873 19.8405C21.1123 20.0968 21.5842 20.0374 21.8405 19.7124C22.0967 19.3874 22.0373 18.9155 21.7123 18.6593L18.4249 16.0843C19.6624 14.8156 20.4999 13.3938 20.9217 12.3844C21.0248 12.1375 21.0248 11.8625 20.9217 11.6157C20.4561 10.5001 19.478 8.87509 18.0155 7.51886C16.5468 6.15014 14.525 5.00016 12 5.00016C9.86879 5.00016 8.09382 5.82202 6.70947 6.90013L3.21265 4.15955ZM8.97193 8.67197C9.76879 7.94386 10.8344 7.50011 12 7.50011C14.4843 7.50011 16.4999 9.5157 16.4999 12C16.4999 12.7781 16.3031 13.5094 15.9562 14.1469L14.75 13.2031C15.0124 12.6 15.0812 11.9094 14.8999 11.225C14.5531 9.9282 13.4062 9.05634 12.1312 9.00321C11.95 8.99696 11.8438 9.19383 11.9 9.36883C11.9656 9.56883 12.0031 9.78132 12.0031 10.0032C12.0031 10.3219 11.9281 10.6219 11.7969 10.8876L8.97505 8.67509L8.97193 8.67197ZM13.6562 16.1843C13.1437 16.3875 12.5844 16.5 12 16.5C9.51567 16.5 7.50008 14.4844 7.50008 12C7.50008 11.7844 7.5157 11.575 7.54383 11.3688L4.59701 9.04696C3.88452 9.97507 3.37515 10.9001 3.07828 11.6157C2.97516 11.8625 2.97516 12.1375 3.07828 12.3844C3.5439 13.5 4.52201 15.125 5.98448 16.4812C7.45321 17.8499 9.47504 18.9999 12 18.9999C13.4937 18.9999 14.8093 18.5968 15.9437 17.9843L13.6562 16.1843Z" fill="#13131D"/>
</svg>
