<svg width="24" height="24" viewBox="0 0 24 24" fill="none" xmlns="http://www.w3.org/2000/svg">
<path d="M11.9983 4C9.19295 4 6.94662 5.27767 5.31134 6.79837C3.68649 8.30518 2.59977 10.1106 2.08593 11.3501C1.97136 11.6243 1.97136 11.9299 2.08593 12.2041C2.59977 13.4436 3.68649 15.249 5.31134 16.7558C6.94662 18.2765 9.19295 19.5542 11.9983 19.5542C14.8036 19.5542 17.0499 18.2765 18.6852 16.7558C20.31 15.2456 21.3968 13.4436 21.9141 12.2041C22.0286 11.9299 22.0286 11.6243 21.9141 11.3501C21.3968 10.1106 20.31 8.30518 18.6852 6.79837C17.0499 5.27767 14.8036 4 11.9983 4ZM6.9987 11.7771C6.9987 10.4511 7.52544 9.17948 8.46304 8.24188C9.40064 7.30428 10.6723 6.77754 11.9983 6.77754C13.3242 6.77754 14.5959 7.30428 15.5335 8.24188C16.4711 9.17948 16.9978 10.4511 16.9978 11.7771C16.9978 13.1031 16.4711 14.3747 15.5335 15.3123C14.5959 16.2499 13.3242 16.7767 11.9983 16.7767C10.6723 16.7767 9.40064 16.2499 8.46304 15.3123C7.52544 14.3747 6.9987 13.1031 6.9987 11.7771ZM11.9983 9.55507C11.9983 10.7807 11.0018 11.7771 9.77624 11.7771C9.52973 11.7771 9.29364 11.7354 9.07144 11.6625C8.88048 11.6 8.65828 11.7181 8.66522 11.9195C8.67564 12.159 8.71036 12.3986 8.77632 12.6381C9.25198 14.4158 11.0817 15.4712 12.8593 14.9956C14.6369 14.5199 15.6924 12.6902 15.2167 10.9126C14.8314 9.47175 13.5572 8.50308 12.1406 8.44406C11.9392 8.43712 11.8212 8.65585 11.8837 8.85027C11.9566 9.07248 11.9983 9.30857 11.9983 9.55507Z" fill="#13131D"/>
</svg>
