<svg width="26" height="26" viewBox="0 0 26 26" fill="none" xmlns="http://www.w3.org/2000/svg">
<path d="M2.93008 9.80078L3.40742 10.6336C3.82891 11.3699 4.51953 11.9133 5.33711 12.1469L8.27734 12.9848C9.15078 13.2336 9.75 14.0309 9.75 14.9398V16.966C9.75 17.5246 10.0648 18.0324 10.5625 18.2812C11.0602 18.5301 11.375 19.0379 11.375 19.5965V21.577C11.375 22.3691 12.1316 22.943 12.8934 22.7246C13.7109 22.491 14.3457 21.8359 14.5539 21.0082L14.6961 20.4395C14.9094 19.5812 15.468 18.8449 16.2348 18.4082L16.6461 18.1746C17.4078 17.743 17.875 16.9305 17.875 16.057V15.6355C17.875 14.9906 17.616 14.3711 17.159 13.9141L16.9609 13.716C16.5039 13.259 15.8844 13 15.2395 13H13.0508C12.4871 13 11.9285 12.8527 11.4359 12.5734L9.68398 11.573C9.46562 11.4461 9.29805 11.243 9.2168 11.0043C9.0543 10.5168 9.27266 9.98867 9.73477 9.76016L10.0344 9.60781C10.3695 9.44023 10.7605 9.40977 11.116 9.53164L12.2941 9.92266C12.7105 10.0598 13.1676 9.90234 13.4062 9.5418C13.6449 9.18633 13.6195 8.71406 13.3453 8.38398L12.6547 7.55625C12.1469 6.94688 12.152 6.0582 12.6699 5.45898L13.4672 4.52969C13.9141 4.00664 13.9852 3.26016 13.6449 2.66602L13.523 2.45273C13.3453 2.44258 13.1727 2.4375 12.9949 2.4375C8.28242 2.4375 4.28594 5.53008 2.93008 9.80078ZM23.5625 13C23.5625 11.1313 23.075 9.37422 22.2219 7.8457L20.9219 8.36875C20.1246 8.68867 19.7133 9.57734 19.9824 10.3898L20.8406 12.9645C21.0184 13.4926 21.45 13.8938 21.9883 14.0258L23.466 14.3965C23.527 13.9395 23.5574 13.4723 23.5574 13H23.5625ZM0 13C0 9.55219 1.36964 6.24558 3.80761 3.80761C6.24558 1.36964 9.55219 0 13 0C16.4478 0 19.7544 1.36964 22.1924 3.80761C24.6304 6.24558 26 9.55219 26 13C26 16.4478 24.6304 19.7544 22.1924 22.1924C19.7544 24.6304 16.4478 26 13 26C9.55219 26 6.24558 24.6304 3.80761 22.1924C1.36964 19.7544 0 16.4478 0 13Z" fill="#13131D"/>
</svg>
