<svg width="24" height="24" viewBox="0 0 24 24" fill="none" xmlns="http://www.w3.org/2000/svg">
<path d="M7.71429 6.78571C7.71429 5.79911 6.91518 5 5.92857 5H3.78571C2.79911 5 2 5.79911 2 6.78571V8.92857C2 9.91518 2.79911 10.7143 3.78571 10.7143H5.92857C6.91518 10.7143 7.71429 9.91518 7.71429 8.92857V6.78571ZM7.71429 15.3571C7.71429 14.3705 6.91518 13.5714 5.92857 13.5714H3.78571C2.79911 13.5714 2 14.3705 2 15.3571V17.5C2 18.4866 2.79911 19.2857 3.78571 19.2857H5.92857C6.91518 19.2857 7.71429 18.4866 7.71429 17.5V15.3571ZM9.14286 6.78571V8.92857C9.14286 9.91518 9.94196 10.7143 10.9286 10.7143H13.0714C14.058 10.7143 14.8571 9.91518 14.8571 8.92857V6.78571C14.8571 5.79911 14.058 5 13.0714 5H10.9286C9.94196 5 9.14286 5.79911 9.14286 6.78571ZM14.8571 15.3571C14.8571 14.3705 14.058 13.5714 13.0714 13.5714H10.9286C9.94196 13.5714 9.14286 14.3705 9.14286 15.3571V17.5C9.14286 18.4866 9.94196 19.2857 10.9286 19.2857H13.0714C14.058 19.2857 14.8571 18.4866 14.8571 17.5V15.3571ZM16.2857 6.78571V8.92857C16.2857 9.91518 17.0848 10.7143 18.0714 10.7143H20.2143C21.2009 10.7143 22 9.91518 22 8.92857V6.78571C22 5.79911 21.2009 5 20.2143 5H18.0714C17.0848 5 16.2857 5.79911 16.2857 6.78571ZM22 15.3571C22 14.3705 21.2009 13.5714 20.2143 13.5714H18.0714C17.0848 13.5714 16.2857 14.3705 16.2857 15.3571V17.5C16.2857 18.4866 17.0848 19.2857 18.0714 19.2857H20.2143C21.2009 19.2857 22 18.4866 22 17.5V15.3571Z" fill="#13131D"/>
</svg>
