<svg width="24" height="24" viewBox="0 0 24 24" fill="none" xmlns="http://www.w3.org/2000/svg">
<path d="M12 3.875C7.51172 3.875 3.875 7.51172 3.875 12V13.5625C3.875 14.082 3.45703 14.5 2.9375 14.5C2.41797 14.5 2 14.082 2 13.5625V12C2 6.47656 6.47656 2 12 2C17.5234 2 22 6.47656 22 12V17.6289C22 19.5273 20.4609 21.0664 18.5586 21.0664L14.25 21.0625C13.9258 21.6211 13.3203 22 12.625 22H11.375C10.3398 22 9.5 21.1602 9.5 20.125C9.5 19.0898 10.3398 18.25 11.375 18.25H12.625C13.3203 18.25 13.9258 18.6289 14.25 19.1875L18.5625 19.1914C19.4258 19.1914 20.125 18.4922 20.125 17.6289V12C20.125 7.51172 16.4883 3.875 12 3.875ZM7.625 10.125H8.25C8.94141 10.125 9.5 10.6836 9.5 11.375V15.75C9.5 16.4414 8.94141 17 8.25 17H7.625C6.24609 17 5.125 15.8789 5.125 14.5V12.625C5.125 11.2461 6.24609 10.125 7.625 10.125ZM16.375 10.125C17.7539 10.125 18.875 11.2461 18.875 12.625V14.5C18.875 15.8789 17.7539 17 16.375 17H15.75C15.0586 17 14.5 16.4414 14.5 15.75V11.375C14.5 10.6836 15.0586 10.125 15.75 10.125H16.375Z" fill="#13131D"/>
</svg>
