<svg width="24" height="24" viewBox="0 0 24 24" fill="none" xmlns="http://www.w3.org/2000/svg">
<path d="M21.9948 11.8723C21.9948 12.4973 21.4739 12.987 20.8836 12.987H19.7723L19.7967 18.5499C19.7967 18.6437 19.7897 18.7374 19.7793 18.8312V19.3903C19.7793 20.1577 19.1577 20.7793 18.3903 20.7793H17.8347C17.7965 20.7793 17.7583 20.7793 17.7201 20.7758C17.6715 20.7793 17.6229 20.7793 17.5742 20.7793H16.4457H15.6123C14.8448 20.7793 14.2233 20.1577 14.2233 19.3903V18.5569V16.3345C14.2233 15.7198 13.7267 15.2233 13.1121 15.2233H10.8896C10.275 15.2233 9.77844 15.7198 9.77844 16.3345V18.5569V19.3903C9.77844 20.1577 9.15686 20.7793 8.38943 20.7793H7.55603H6.4483C6.39621 20.7793 6.34412 20.7758 6.29203 20.7723C6.25036 20.7758 6.20869 20.7793 6.16702 20.7793H5.61142C4.84399 20.7793 4.22241 20.1577 4.22241 19.3903V15.5011C4.22241 15.4698 4.22241 15.4351 4.22588 15.4038V12.987H3.11121C2.48615 12.987 2 12.5008 2 11.8723C2 11.5598 2.10418 11.282 2.34725 11.0389L11.2508 3.2778C11.4939 3.03473 11.7717 3 12.0147 3C12.2578 3 12.5356 3.06945 12.744 3.24308L21.6128 11.0389C21.8906 11.282 22.0295 11.5598 21.9948 11.8723Z" fill="#13131D"/>
</svg>
