<?xml version="1.0" encoding="utf-8"?>
<svg viewBox="0 0 15 16" width="15px" height="16px" fill="none" xmlns="http://www.w3.org/2000/svg">
  <path d="M 0.5 3.625 C 0.5 2.66 1.285 1.875 2.25 1.875 L 12.75 1.875 C 13.715 1.875 14.5 2.66 14.5 3.625 L 14.5 12.375 C 14.5 13.34 13.715 14.125 12.75 14.125 L 2.25 14.125 C 1.285 14.125 0.5 13.34 0.5 12.375 L 0.5 3.625 Z M 9.354 6.537 C 9.231 6.357 9.029 6.25 8.813 6.25 C 8.596 6.25 8.391 6.357 8.271 6.537 L 5.892 10.026 L 5.168 9.121 C 5.042 8.965 4.853 8.875 4.656 8.875 C 4.459 8.875 4.268 8.965 4.145 9.121 L 2.395 11.309 C 2.236 11.506 2.206 11.776 2.316 12.003 C 2.425 12.23 2.655 12.375 2.906 12.375 L 5.531 12.375 L 6.406 12.375 L 12.094 12.375 C 12.337 12.375 12.561 12.241 12.673 12.025 C 12.786 11.809 12.772 11.549 12.635 11.35 L 9.354 6.537 Z M 3.563 6.25 C 3.911 6.25 4.244 6.112 4.491 5.866 C 4.737 5.619 4.875 5.286 4.875 4.938 C 4.875 4.589 4.737 4.256 4.491 4.009 C 4.244 3.763 3.911 3.625 3.563 3.625 C 3.214 3.625 2.881 3.763 2.634 4.009 C 2.388 4.256 2.25 4.589 2.25 4.938 C 2.25 5.286 2.388 5.619 2.634 5.866 C 2.881 6.112 3.214 6.25 3.563 6.25 Z" fill="#13131D"/>
</svg>