<svg width="26" height="26" viewBox="0 0 26 26" fill="none" xmlns="http://www.w3.org/2000/svg">
<path d="M13 26C16.4478 26 19.7544 24.6304 22.1924 22.1924C24.6304 19.7544 26 16.4478 26 13C26 9.55219 24.6304 6.24558 22.1924 3.80761C19.7544 1.36964 16.4478 0 13 0C9.55219 0 6.24558 1.36964 3.80761 3.80761C1.36964 6.24558 0 9.55219 0 13C0 16.4478 1.36964 19.7544 3.80761 22.1924C6.24558 24.6304 9.55219 26 13 26ZM10.9688 17.0625H12.1875V13.8125H10.9688C10.2934 13.8125 9.75 13.2691 9.75 12.5938C9.75 11.9184 10.2934 11.375 10.9688 11.375H13.4062C14.0816 11.375 14.625 11.9184 14.625 12.5938V17.0625H15.0312C15.7066 17.0625 16.25 17.6059 16.25 18.2812C16.25 18.9566 15.7066 19.5 15.0312 19.5H10.9688C10.2934 19.5 9.75 18.9566 9.75 18.2812C9.75 17.6059 10.2934 17.0625 10.9688 17.0625ZM13 6.5C13.431 6.5 13.8443 6.67121 14.149 6.97595C14.4538 7.2807 14.625 7.69402 14.625 8.125C14.625 8.55598 14.4538 8.9693 14.149 9.27405C13.8443 9.57879 13.431 9.75 13 9.75C12.569 9.75 12.1557 9.57879 11.851 9.27405C11.5462 8.9693 11.375 8.55598 11.375 8.125C11.375 7.69402 11.5462 7.2807 11.851 6.97595C12.1557 6.67121 12.569 6.5 13 6.5Z" fill="#13131D"/>
</svg>
