<svg width="24" height="24" viewBox="0 0 24 24" fill="none" xmlns="http://www.w3.org/2000/svg">
<path d="M7.5 2C6.12109 2 5 3.12109 5 4.5V19.5C5 20.8789 6.12109 22 7.5 22H17.5C18.8789 22 20 20.8789 20 19.5V8.25H15C14.3086 8.25 13.75 7.69141 13.75 7V2H7.5ZM15 2V7H20L15 2ZM7.5 5.125C7.5 4.78125 7.78125 4.5 8.125 4.5H10.625C10.9688 4.5 11.25 4.78125 11.25 5.125C11.25 5.46875 10.9688 5.75 10.625 5.75H8.125C7.78125 5.75 7.5 5.46875 7.5 5.125ZM7.5 7.625C7.5 7.28125 7.78125 7 8.125 7H10.625C10.9688 7 11.25 7.28125 11.25 7.625C11.25 7.96875 10.9688 8.25 10.625 8.25H8.125C7.78125 8.25 7.5 7.96875 7.5 7.625ZM12.5 10.4375C12.8438 10.4375 13.125 10.7188 13.125 11.0625V11.7383C13.457 11.7852 13.7773 11.8594 14.0664 11.9375C14.3984 12.0273 14.5977 12.3672 14.5078 12.7031C14.418 13.0391 14.0781 13.2344 13.7422 13.1445C13.3086 13.0273 12.8828 12.9414 12.4883 12.9375C12.1602 12.9336 11.8086 13.0078 11.5664 13.1523C11.3438 13.2852 11.25 13.4375 11.25 13.6523C11.25 13.7969 11.3008 13.9062 11.5352 14.0469C11.8047 14.207 12.1836 14.3242 12.6758 14.4727L12.6953 14.4766C13.1367 14.6094 13.6836 14.7734 14.1133 15.0469C14.5859 15.3438 14.9883 15.8164 15 16.5391C15.0117 17.293 14.625 17.8398 14.1055 18.1641C13.8047 18.3516 13.4648 18.4609 13.125 18.5195V19.1875C13.125 19.5312 12.8438 19.8125 12.5 19.8125C12.1562 19.8125 11.875 19.5312 11.875 19.1875V18.4922C11.4375 18.4102 11.0273 18.2695 10.668 18.1445C10.5859 18.1172 10.5039 18.0898 10.4258 18.0625C10.0977 17.9531 9.92188 17.5977 10.0312 17.2734C10.1406 16.9492 10.4961 16.7695 10.8203 16.8789C10.918 16.9102 11.0078 16.9414 11.0977 16.9727C11.6289 17.1523 12.0586 17.3008 12.5156 17.3125C12.8711 17.3242 13.2148 17.2461 13.4414 17.1055C13.6406 16.9805 13.75 16.8203 13.7461 16.5586C13.7422 16.3789 13.6758 16.2539 13.4453 16.1055C13.1797 15.9375 12.8008 15.8164 12.3125 15.668L12.25 15.6484C11.8203 15.5195 11.3008 15.3633 10.8906 15.1133C10.4219 14.832 10.0078 14.375 10.0039 13.6562C10 12.8984 10.4258 12.375 10.9336 12.0742C11.2266 11.9023 11.5508 11.793 11.875 11.7344V11.0625C11.875 10.7188 12.1562 10.4375 12.5 10.4375Z" fill="#13131D"/>
</svg>
