<svg width="24" height="24" viewBox="0 0 24 24" fill="none" xmlns="http://www.w3.org/2000/svg">
<path d="M21.1184 12.398C23.0406 10.4759 23.0406 7.36306 21.1184 5.44093C19.4174 3.73992 16.7367 3.51879 14.7805 4.91702L14.7261 4.95444C14.2362 5.30485 14.1239 5.98525 14.4743 6.47174C14.8247 6.95822 15.5051 7.07389 15.9916 6.72348L16.046 6.68606C17.1381 5.907 18.6316 6.02947 19.5773 6.97863C20.649 8.05027 20.649 9.78529 19.5773 10.8569L15.7603 14.6808C14.6886 15.7524 12.9536 15.7524 11.882 14.6808C10.9328 13.7316 10.8104 12.2381 11.5894 11.1495L11.6268 11.0951C11.9772 10.6052 11.8616 9.92477 11.3751 9.57777C10.8886 9.23076 10.2048 9.34303 9.85779 9.82952L9.82037 9.88395C8.41874 11.8367 8.63987 14.5175 10.3409 16.2185C12.263 18.1406 15.3758 18.1406 17.298 16.2185L21.1184 12.398ZM3.4416 11.602C1.51947 13.5241 1.51947 16.6369 3.4416 18.5591C5.14261 20.2601 7.82339 20.4812 9.77954 19.083L9.83398 19.0456C10.3239 18.6952 10.4361 18.0148 10.0857 17.5283C9.73532 17.0418 9.05492 16.9261 8.56843 17.2765L8.514 17.3139C7.42195 18.093 5.92847 17.9705 4.98271 17.0214C3.91108 15.9463 3.91108 14.2113 4.98271 13.1397L8.79977 9.31922C9.8714 8.24758 11.6064 8.24758 12.6781 9.31922C13.6272 10.2684 13.7497 11.7619 12.9706 12.8539L12.9332 12.9083C12.5828 13.3982 12.6985 14.0786 13.185 14.4256C13.6714 14.7726 14.3552 14.6604 14.7023 14.1739L14.7397 14.1195C16.1413 12.1633 15.9202 9.48251 14.2192 7.78151C12.297 5.85937 9.18419 5.85937 7.26206 7.78151L3.4416 11.602Z" fill="#13131D"/>
</svg>
