<svg width="24" height="24" viewBox="0 0 24 24" fill="none" xmlns="http://www.w3.org/2000/svg">
<path d="M3.87097 4C3.38831 4 3 4.38831 3 4.87097V6.6129C3 7.09556 3.38831 7.48387 3.87097 7.48387H5.6129C6.09556 7.48387 6.48387 7.09556 6.48387 6.6129V4.87097C6.48387 4.38831 6.09556 4 5.6129 4H3.87097ZM9.3871 4.58065C8.74476 4.58065 8.22581 5.0996 8.22581 5.74194C8.22581 6.38427 8.74476 6.90323 9.3871 6.90323H19.8387C20.481 6.90323 21 6.38427 21 5.74194C21 5.0996 20.481 4.58065 19.8387 4.58065H9.3871ZM9.3871 10.3871C8.74476 10.3871 8.22581 10.906 8.22581 11.5484C8.22581 12.1907 8.74476 12.7097 9.3871 12.7097H19.8387C20.481 12.7097 21 12.1907 21 11.5484C21 10.906 20.481 10.3871 19.8387 10.3871H9.3871ZM9.3871 16.1935C8.74476 16.1935 8.22581 16.7125 8.22581 17.3548C8.22581 17.9972 8.74476 18.5161 9.3871 18.5161H19.8387C20.481 18.5161 21 17.9972 21 17.3548C21 16.7125 20.481 16.1935 19.8387 16.1935H9.3871ZM3 10.6774V12.4194C3 12.902 3.38831 13.2903 3.87097 13.2903H5.6129C6.09556 13.2903 6.48387 12.902 6.48387 12.4194V10.6774C6.48387 10.1948 6.09556 9.80645 5.6129 9.80645H3.87097C3.38831 9.80645 3 10.1948 3 10.6774ZM3.87097 15.6129C3.38831 15.6129 3 16.0012 3 16.4839V18.2258C3 18.7085 3.38831 19.0968 3.87097 19.0968H5.6129C6.09556 19.0968 6.48387 18.7085 6.48387 18.2258V16.4839C6.48387 16.0012 6.09556 15.6129 5.6129 15.6129H3.87097Z" fill="#13131D"/>
</svg>
