<svg width="78" height="18" viewBox="0 0 78 18" fill="none" xmlns="http://www.w3.org/2000/svg">
<path d="M8.37098 18C6.89703 18 5.46031 17.8288 4.05336 17.4864C2.65386 17.1439 1.52234 16.7196 0.66626 16.206L2.46031 12.0372C3.29405 12.5285 4.25436 12.9231 5.34865 13.2208C6.4355 13.5186 7.50746 13.6675 8.55708 13.6675C9.60671 13.6675 10.2916 13.5558 10.6936 13.3325C11.0881 13.1092 11.2891 12.804 11.2891 12.4169C11.2891 12.0968 11.1104 11.8511 10.7457 11.6799C10.3809 11.5087 9.8896 11.3896 9.27173 11.3077C8.65386 11.2332 7.98389 11.1439 7.26925 11.0471C6.55461 10.9504 5.81763 10.8015 5.07322 10.6005C4.32136 10.3995 3.64393 10.1166 3.03351 9.75186C2.42309 9.3871 1.93921 8.88834 1.57445 8.24069C1.20969 7.6005 1.03103 6.78908 1.03103 5.80645C1.03103 4.69727 1.35857 3.70719 2.00621 2.83623C2.6613 1.9727 3.60672 1.2804 4.86478 0.766748C6.1154 0.253101 7.66379 0 9.5025 0C10.7233 0 11.9591 0.12655 13.2097 0.387096C14.4603 0.647642 15.5174 1.01985 16.366 1.51117L14.5347 5.6799C13.6787 5.16625 12.8226 4.82382 11.9665 4.65261C11.1104 4.48139 10.3065 4.3995 9.56205 4.3995C8.53476 4.3995 7.80522 4.51117 7.36601 4.73449C6.92681 4.95782 6.71093 5.24069 6.71093 5.58313C6.71093 5.92556 6.90448 6.1861 7.29158 6.37221C7.67867 6.55087 8.16999 6.69231 8.76552 6.78908C9.36105 6.88586 10.031 6.98263 10.768 7.0794C11.505 7.17618 12.2419 7.31762 12.964 7.51117C13.6936 7.70471 14.3561 7.98759 14.9516 8.3598C15.5472 8.73201 16.0385 9.23821 16.4107 9.86352C16.7829 10.4963 16.969 11.3151 16.969 12.3201C16.969 13.3251 16.6489 14.3226 16.0087 15.1787C15.3685 16.0347 14.4082 16.7196 13.1204 17.2332C11.84 17.7469 10.2544 18 8.37098 18Z" fill="#13131D"/>
<path d="M47.8699 18C45.9642 18 44.2744 17.6129 42.8004 16.8462C41.3265 16.0794 40.1652 15.0149 39.3165 13.6526C38.4679 12.2978 38.051 10.7494 38.051 9.01489C38.051 7.2804 38.4754 5.70223 39.3165 4.34739C40.1577 2.99256 41.319 1.92804 42.8004 1.15385C44.2744 0.387096 45.9642 0 47.8699 0C49.7756 0 51.4654 0.387096 52.9543 1.15385C54.4431 1.9206 55.6044 2.98511 56.453 4.34739C57.2942 5.70223 57.7185 7.25807 57.7185 9.01489C57.7185 10.7717 57.2942 12.2903 56.453 13.6526C55.6044 15.0074 54.4431 16.072 52.9543 16.8462C51.4654 17.6129 49.7756 18 47.8699 18ZM47.8699 13.1538C48.5547 13.1538 49.1726 12.9901 49.716 12.67C50.2595 12.3499 50.6987 11.8734 51.0337 11.2407C51.3686 10.6079 51.5324 9.85608 51.5324 8.97767C51.5324 8.09925 51.3686 7.33251 51.0337 6.72953C50.6987 6.134 50.2669 5.67246 49.716 5.35236C49.1726 5.03226 48.5547 4.86849 47.8699 4.86849C47.185 4.86849 46.5746 5.02481 46.0237 5.35236C45.4803 5.67246 45.0411 6.134 44.7061 6.72953C44.3711 7.32506 44.2074 8.07692 44.2074 8.97767C44.2074 9.87841 44.3711 10.6079 44.7061 11.2407C45.0337 11.8734 45.4729 12.3499 46.0237 12.67C46.5746 12.9901 47.185 13.1538 47.8699 13.1538Z" fill="#13131D"/>
<path d="M70.15 0.00744434C71.4974 0.00744434 72.7182 0.282878 73.8051 0.84119C74.8919 1.3995 75.7554 2.24069 76.3882 3.37221C77.0209 4.50372 77.3336 5.97022 77.3336 7.76427V18H71.207V8.75434C71.207 7.51117 70.9539 6.61042 70.4552 6.04466C69.949 5.47891 69.2716 5.19603 68.4155 5.19603C67.753 5.19603 67.15 5.33747 66.6214 5.62779C66.0855 5.91811 65.6686 6.35732 65.3708 6.9603C65.0731 7.55583 64.9242 8.35236 64.9242 9.33499V18H58.8274V0H64.6636V5.26303L63.5098 3.81886C64.1723 2.57568 65.0805 1.63027 66.2343 0.98263C67.3882 0.327543 68.6909 0.00744434 70.15 0.00744434Z" fill="#13131D"/>
<path d="M27.1078 17.9926C26.6538 17.9256 26.2294 17.7842 25.8423 17.5534C25.2989 17.2333 24.8597 16.7569 24.5247 16.1241C24.1897 15.4914 24.026 14.7395 24.026 13.8611C24.026 12.9827 24.1897 12.2159 24.5247 11.613C24.8523 11.0174 25.2915 10.5559 25.8423 10.2358C26.3858 9.91568 27.0036 9.75191 27.6885 9.75191C28.3734 9.75191 28.9912 9.90824 29.5347 10.2358C30.0781 10.5559 30.5173 11.0174 30.8523 11.613C31.1872 12.2085 31.351 12.9603 31.351 13.8611C31.351 14.7618 31.1872 15.4914 30.8523 16.1241C30.5173 16.7569 30.0855 17.2333 29.5347 17.5534C29.1476 17.7842 28.7232 17.9256 28.2691 17.9926H36.5768C37.217 16.7718 37.5371 15.402 37.5371 13.8983C37.5371 12.1415 37.1128 10.5857 36.2716 9.23082C35.423 7.87598 34.2617 6.81146 32.7729 6.03727C31.284 5.27052 29.5942 4.88342 27.6885 4.88342C25.7828 4.88342 24.093 5.27052 22.619 6.03727C21.1451 6.80402 19.9838 7.86853 19.1351 9.23082C18.2865 10.5857 17.8696 12.1415 17.8696 13.8983C17.8696 15.402 18.1897 16.7718 18.8299 17.9926H27.1078Z" fill="#13131D"/>
</svg>
