<?xml version="1.0" encoding="utf-8"?>
<svg viewBox="0 0 32 32" width="32" height="32" xmlns="http://www.w3.org/2000/svg">
  <path d="M 16.506 13.64 L 16.506 15.088 L 16.058 15.088 L 16.058 13.64 C 15.844 13.64 15.565 13.639 15.46 13.635 L 13.975 13.639 C 13.85 13.646 13.721 13.616 13.604 13.547 C 13.379 13.412 13.257 13.163 13.267 12.913 C 13.267 12.876 13.272 12.843 13.276 12.818 C 13.328 12.511 13.433 12.209 13.591 11.925 C 13.75 11.64 13.951 11.395 14.183 11.194 C 14.338 11.075 14.556 11.016 14.755 11.052 C 14.812 10.854 14.944 10.691 15.117 10.597 C 15.15 10.578 15.18 10.565 15.206 10.555 C 15.542 10.429 15.905 10.361 16.282 10.361 C 16.661 10.361 17.025 10.43 17.363 10.557 C 17.558 10.645 17.731 10.828 17.804 11.046 C 17.995 11 18.192 11.045 18.348 11.167 C 18.579 11.368 18.814 11.64 18.973 11.925 C 19.131 12.209 19.235 12.511 19.288 12.817 C 19.292 12.843 19.296 12.875 19.296 12.912 C 19.306 13.163 19.185 13.412 18.959 13.546 C 18.843 13.616 18.714 13.646 18.588 13.639 L 17.104 13.635 C 16.998 13.639 16.72 13.64 16.506 13.64 Z M 18.094 11.548 C 18.091 11.546 18.088 11.544 18.086 11.542 C 18.015 11.487 17.917 11.477 17.835 11.526 C 17.792 11.552 17.76 11.59 17.741 11.633 L 16.989 12.99 C 16.966 13.026 16.964 13.074 16.986 13.114 C 17.008 13.154 17.051 13.175 17.093 13.171 L 18.603 13.176 C 18.648 13.18 18.694 13.17 18.736 13.145 C 18.815 13.098 18.856 13.009 18.849 12.921 C 18.849 12.915 18.849 12.908 18.847 12.898 C 18.803 12.644 18.717 12.393 18.585 12.157 C 18.453 11.919 18.286 11.715 18.094 11.548 Z M 14.478 11.543 C 14.476 11.544 14.473 11.546 14.471 11.549 C 14.279 11.716 14.112 11.92 13.979 12.157 C 13.847 12.394 13.761 12.644 13.717 12.899 C 13.715 12.908 13.715 12.915 13.715 12.921 C 13.708 13.01 13.75 13.098 13.828 13.145 C 13.87 13.17 13.916 13.18 13.961 13.176 L 15.471 13.172 C 15.513 13.176 15.556 13.154 15.579 13.114 C 15.601 13.074 15.598 13.026 15.575 12.99 L 14.823 11.634 C 14.804 11.59 14.772 11.552 14.729 11.526 C 14.648 11.478 14.549 11.487 14.478 11.543 Z M 17.221 10.997 C 17.218 10.995 17.214 10.994 17.21 10.992 C 16.921 10.883 16.608 10.824 16.282 10.824 C 15.958 10.824 15.647 10.883 15.358 10.991 C 15.348 10.995 15.34 10.999 15.334 11.003 C 15.239 11.05 15.174 11.149 15.174 11.265 C 15.174 11.326 15.192 11.384 15.223 11.431 L 16.156 13.094 C 16.178 13.143 16.226 13.177 16.282 13.177 C 16.336 13.177 16.384 13.144 16.406 13.097 L 17.34 11.433 C 17.373 11.385 17.392 11.327 17.392 11.264 C 17.392 11.144 17.322 11.041 17.221 10.997 Z M 16.282 8 C 18.801 8 20.844 10.116 20.844 12.725 C 20.844 15.335 18.801 17.45 16.282 17.45 C 13.762 17.45 11.72 15.335 11.72 12.725 C 11.72 10.115 13.762 8 16.282 8 Z M 16.282 8.45 C 14.002 8.45 12.154 10.364 12.154 12.725 C 12.154 15.086 14.002 17 16.282 17 C 18.562 17 20.409 15.086 20.409 12.725 C 20.409 10.364 18.561 8.45 16.282 8.45 Z M 24.484 19.818 L 24.119 19.818 L 24.119 21.232 L 24.484 21.232 C 24.898 21.232 25.232 20.885 25.232 20.457 C 25.232 20.029 24.854 19.818 24.484 19.818 Z M 26.888 22.779 L 26.888 22.818 C 26.888 22.805 26.889 22.793 26.888 22.779 Z M 26.888 22.819 L 26.888 24 L 25.231 24 L 25.231 22.856 C 25.232 22.844 25.232 22.832 25.232 22.819 C 25.232 22.39 24.897 22.043 24.484 22.043 L 24.119 22.043 L 24.119 24 L 22.406 24 L 22.406 19.276 L 25.748 19.276 C 26.377 19.276 26.888 19.804 26.888 20.457 C 26.888 21.109 26.378 21.637 25.748 21.637 C 26.365 21.637 26.868 22.145 26.888 22.779 C 26.889 22.793 26.888 22.805 26.888 22.819 Z M 32 22.027 L 29.205 22.027 L 29.205 23.224 L 32 23.224 L 32 24 L 27.52 24 L 27.52 19.275 L 32 19.275 L 32 20.05 L 29.205 20.05 L 29.205 21.252 L 32 21.252 L 32 22.027 Z M 19.023 21.252 L 21.816 21.252 L 21.816 22.027 L 19.023 22.027 L 19.023 24 L 17.338 24 L 17.338 19.275 L 21.816 19.275 L 21.816 20.05 L 19.023 20.05 L 19.023 21.252 Z M 14.35 19.817 L 13.984 19.817 L 13.984 21.231 L 14.35 21.231 C 14.773 21.231 15.098 20.885 15.098 20.456 C 15.098 20.028 14.729 19.817 14.35 19.817 Z M 15.424 19.276 C 16.159 19.276 16.754 19.893 16.754 20.654 C 16.754 21.414 16.159 22.031 15.424 22.031 L 13.956 22.031 L 13.956 23.999 L 12.272 23.999 L 12.272 19.276 L 15.424 19.276 Z M 8.936 19.982 L 8.252 22.449 L 9.62 22.449 L 8.936 19.982 Z M 6.138 24 L 7.448 19.274 L 10.424 19.274 L 11.735 24 L 10.05 24 L 9.835 23.224 L 8.037 23.224 L 7.822 24 L 6.138 24 Z M 0 24 L 0 19.275 L 1.685 19.275 L 2.798 21.637 L 3.912 19.275 L 5.597 19.275 L 5.597 24 L 3.912 24 L 3.912 21.637 L 2.798 24 L 1.685 21.637 L 1.685 24 L 0 24 Z" fill="#be002f"/>
</svg>