<svg width="20" height="26" viewBox="0 0 20 26" fill="none" xmlns="http://www.w3.org/2000/svg">
<path d="M10.9535 25.4158C13.5586 22.1472 19.5 14.2251 19.5 9.7753C19.5 4.37852 15.1328 0 9.75 0C4.36719 0 0 4.37852 0 9.7753C0 14.2251 5.94141 22.1472 8.54648 25.4158C9.17109 26.1947 10.3289 26.1947 10.9535 25.4158ZM9.75 6.51686C10.612 6.51686 11.4386 6.86016 12.0481 7.47124C12.6576 8.08231 13 8.91111 13 9.7753C13 10.6395 12.6576 11.4683 12.0481 12.0794C11.4386 12.6904 10.612 13.0337 9.75 13.0337C8.88805 13.0337 8.0614 12.6904 7.4519 12.0794C6.84241 11.4683 6.5 10.6395 6.5 9.7753C6.5 8.91111 6.84241 8.08231 7.4519 7.47124C8.0614 6.86016 8.88805 6.51686 9.75 6.51686Z" fill="#13131D"/>
</svg>
