<svg width="24" height="24" viewBox="0 0 24 24" fill="none" xmlns="http://www.w3.org/2000/svg">
<path d="M11.875 2C9.80469 2 8.125 3.67969 8.125 5.75V12C8.125 14.0703 9.80469 15.75 11.875 15.75C13.9453 15.75 15.625 14.0703 15.625 12V5.75C15.625 3.67969 13.9453 2 11.875 2ZM6.875 10.4375C6.875 9.91797 6.45703 9.5 5.9375 9.5C5.41797 9.5 5 9.91797 5 10.4375V12C5 15.4805 7.58594 18.3555 10.9375 18.8125V20.125H9.0625C8.54297 20.125 8.125 20.543 8.125 21.0625C8.125 21.582 8.54297 22 9.0625 22H11.875H14.6875C15.207 22 15.625 21.582 15.625 21.0625C15.625 20.543 15.207 20.125 14.6875 20.125H12.8125V18.8125C16.1641 18.3555 18.75 15.4805 18.75 12V10.4375C18.75 9.91797 18.332 9.5 17.8125 9.5C17.293 9.5 16.875 9.91797 16.875 10.4375V12C16.875 14.7617 14.6367 17 11.875 17C9.11328 17 6.875 14.7617 6.875 12V10.4375Z" fill="#13131D"/>
</svg>
