<svg width="24" height="24" viewBox="0 0 24 24" fill="none" xmlns="http://www.w3.org/2000/svg">
<path d="M14.75 7.625C14.75 5.89844 16.1484 4.5 17.875 4.5C19.6016 4.5 21 5.89844 21 7.625V9.5C21 10.1914 21.5586 10.75 22.25 10.75C22.9414 10.75 23.5 10.1914 23.5 9.5V7.625C23.5 4.51953 20.9805 2 17.875 2C14.7695 2 12.25 4.51953 12.25 7.625V9.5H3.5C2.12109 9.5 1 10.6211 1 12V19.5C1 20.8789 2.12109 22 3.5 22H16C17.3789 22 18.5 20.8789 18.5 19.5V12C18.5 10.6211 17.3789 9.5 16 9.5H14.75V7.625Z" fill="#13131D"/>
</svg>
