<svg width="24" height="24" viewBox="0 0 24 24" fill="none" xmlns="http://www.w3.org/2000/svg">
<path d="M13.3846 4.38462C13.3846 3.61875 12.7659 3 12 3C11.2341 3 10.6154 3.61875 10.6154 4.38462V10.6154H4.38462C3.61875 10.6154 3 11.2341 3 12C3 12.7659 3.61875 13.3846 4.38462 13.3846H10.6154V19.6154C10.6154 20.3813 11.2341 21 12 21C12.7659 21 13.3846 20.3813 13.3846 19.6154V13.3846H19.6154C20.3813 13.3846 21 12.7659 21 12C21 11.2341 20.3813 10.6154 19.6154 10.6154H13.3846V4.38462Z" fill="#13131D"/>
</svg>
