<svg width="24" height="25" viewBox="0 0 24 25" fill="none" xmlns="http://www.w3.org/2000/svg">
<path d="M13.3333 3.93734C13.3333 3.19984 12.7375 2.604 12 2.604C11.2625 2.604 10.6667 3.19984 10.6667 3.93734V13.2707C10.6667 14.0082 11.2625 14.604 12 14.604C12.7375 14.604 13.3333 14.0082 13.3333 13.2707V3.93734ZM7.3125 7.629C7.87917 7.15817 7.95417 6.3165 7.48333 5.74984C7.0125 5.18317 6.17083 5.10817 5.60417 5.579C3.40417 7.41234 2 10.179 2 13.2707C2 18.7915 6.47917 23.2707 12 23.2707C17.5208 23.2707 22 18.7915 22 13.2707C22 10.179 20.5917 7.41234 18.3917 5.579C17.825 5.10817 16.9833 5.18734 16.5125 5.74984C16.0417 6.31234 16.1208 7.15817 16.6833 7.629C18.3042 8.97484 19.3292 11.004 19.3292 13.2707C19.3292 17.3207 16.0458 20.604 11.9958 20.604C7.94583 20.604 4.6625 17.3207 4.6625 13.2707C4.6625 11.004 5.69167 8.97484 7.30833 7.629H7.3125Z" fill="#13131D"/>
</svg>
