<svg width="24" height="24" viewBox="0 0 24 24" fill="none" xmlns="http://www.w3.org/2000/svg">
<path d="M16.3831 9.72117C16.3374 9.03626 16.1548 8.35135 15.7895 7.75776L12.6846 2.32416C12.4563 1.91321 12.2736 1.45661 12.1823 1L12.0453 1.2283C11.2691 2.55246 11.2691 4.2419 12.0453 5.56606L14.5567 9.90381C15.3329 11.228 15.3329 12.9174 14.5567 14.2416L14.4197 14.4699C14.3284 14.0133 14.1457 13.5567 13.9174 13.1457L11.6344 9.17324L10.1732 6.61625C9.94494 6.2053 9.7623 5.7487 9.67097 5.29209L9.53399 5.5204C8.75776 6.84455 8.75776 8.48833 9.53399 9.85815L12.0453 14.1959C12.8216 15.5201 12.8216 17.2095 12.0453 18.5337L11.9083 18.762C11.817 18.3054 11.6344 17.8487 11.4061 17.4378L8.2555 12.0042C7.84455 11.2736 7.66191 10.4517 7.66191 9.62985C4.32869 10.4974 2 12.3695 2 14.5155C2 17.5291 6.47474 19.9491 11.9997 19.9491C17.5246 19.9491 21.9993 17.5291 21.9993 14.5155C22.045 12.4608 19.762 10.5887 16.3831 9.72117Z" fill="#13131D"/>
</svg>
