<svg width="24" height="24" viewBox="0 0 24 24" fill="none" xmlns="http://www.w3.org/2000/svg">
<path d="M4.85714 2C3.28125 2 2 3.28125 2 4.85714V19.1429C2 20.7188 3.28125 22 4.85714 22H19.1429C20.7188 22 22 20.7188 22 19.1429V8.30804C22 7.54911 21.7009 6.82143 21.1652 6.28571L17.7143 2.83482C17.1786 2.29911 16.4509 2 15.692 2H4.85714ZM4.85714 6.28571C4.85714 5.49554 5.49554 4.85714 6.28571 4.85714H14.8571C15.6473 4.85714 16.2857 5.49554 16.2857 6.28571V9.14286C16.2857 9.93304 15.6473 10.5714 14.8571 10.5714H6.28571C5.49554 10.5714 4.85714 9.93304 4.85714 9.14286V6.28571ZM12 13.4286C12.7578 13.4286 13.4845 13.7296 14.0203 14.2654C14.5561 14.8012 14.8571 15.528 14.8571 16.2857C14.8571 17.0435 14.5561 17.7702 14.0203 18.306C13.4845 18.8418 12.7578 19.1429 12 19.1429C11.2422 19.1429 10.5155 18.8418 9.97969 18.306C9.44388 17.7702 9.14286 17.0435 9.14286 16.2857C9.14286 15.528 9.44388 14.8012 9.97969 14.2654C10.5155 13.7296 11.2422 13.4286 12 13.4286Z" fill="#13131D"/>
</svg>
