<svg width="24" height="24" viewBox="0 0 24 24" fill="none" xmlns="http://www.w3.org/2000/svg">
<g clip-path="url(#clip0_163_15086)">
<path d="M2.81674 8.5135C3.35783 8.5135 3.6437 8.20722 3.6437 7.67634V5.26694C3.6437 4.20518 4.20521 3.66409 5.22614 3.66409H7.69679C8.23789 3.66409 8.53395 3.36801 8.53395 2.83713C8.53395 2.30625 8.23789 2.02039 7.69679 2.02039H5.20572C3.07198 2.02039 2 3.07195 2 5.17506V7.67634C2 8.20722 2.29607 8.5135 2.81674 8.5135ZM21.1629 8.5135C21.704 8.5135 21.9898 8.20722 21.9898 7.67634V5.17506C21.9898 3.07195 20.9178 2.02039 18.7841 2.02039H16.2828C15.752 2.02039 15.4559 2.30625 15.4559 2.83713C15.4559 3.36801 15.752 3.66409 16.2828 3.66409H18.7535C19.7642 3.66409 20.3461 4.20518 20.3461 5.26694V7.67634C20.3461 8.20722 20.6422 8.5135 21.1629 8.5135ZM5.20572 22H7.69679C8.23789 22 8.53395 21.7039 8.53395 21.1832C8.53395 20.6524 8.23789 20.3563 7.69679 20.3563H5.22614C4.20521 20.3563 3.6437 19.8152 3.6437 18.7535V16.344C3.6437 15.803 3.34763 15.5069 2.81674 15.5069C2.28586 15.5069 2 15.803 2 16.344V18.8351C2 20.9484 3.07198 22 5.20572 22ZM16.2828 22H18.7841C20.9178 22 21.9898 20.9382 21.9898 18.8351V16.344C21.9898 15.803 21.6938 15.5069 21.1629 15.5069C20.632 15.5069 20.3461 15.803 20.3461 16.344V18.7535C20.3461 19.8152 19.7642 20.3563 18.7535 20.3563H16.2828C15.752 20.3563 15.4559 20.6524 15.4559 21.1832C15.4559 21.7039 15.752 22 16.2828 22Z" fill="#13131D"/>
<path d="M7.22717 7.00933C7.22717 6.16842 7.91086 5.48474 8.75176 5.48474H12.5632V8.53392C12.5632 8.95556 12.9039 9.29621 13.3255 9.29621H16.3747V16.1569C16.3747 16.9978 15.691 17.6815 14.8501 17.6815H8.75176C7.91086 17.6815 7.22717 16.9978 7.22717 16.1569V7.00933ZM16.3747 8.53392H13.3255V5.48474L16.3747 8.53392Z" fill="#13131D"/>
</g>
<defs>
<clipPath id="clip0_163_15086">
<rect width="19.9898" height="20" fill="white" transform="translate(2 2)"/>
</clipPath>
</defs>
</svg>
