<svg width="24" height="24" viewBox="0 0 24 24" fill="none" xmlns="http://www.w3.org/2000/svg">
<path d="M18.2508 10.1254C18.2508 11.9185 17.6687 13.5748 16.6882 14.9186L21.6338 19.8681C22.1221 20.3564 22.1221 21.1494 21.6338 21.6377C21.1455 22.126 20.3525 22.126 19.8642 21.6377L14.9186 16.6882C13.5748 17.6726 11.9185 18.2508 10.1254 18.2508C5.6369 18.2508 2 14.6139 2 10.1254C2 5.6369 5.6369 2 10.1254 2C14.6139 2 18.2508 5.6369 18.2508 10.1254ZM10.1254 15.7507C10.8641 15.7507 11.5956 15.6052 12.2781 15.3225C12.9606 15.0398 13.5807 14.6254 14.1031 14.1031C14.6254 13.5807 15.0398 12.9606 15.3225 12.2781C15.6052 11.5956 15.7507 10.8641 15.7507 10.1254C15.7507 9.38668 15.6052 8.65519 15.3225 7.9727C15.0398 7.29021 14.6254 6.67008 14.1031 6.14773C13.5807 5.62537 12.9606 5.21102 12.2781 4.92832C11.5956 4.64562 10.8641 4.50012 10.1254 4.50012C9.38668 4.50012 8.65519 4.64562 7.9727 4.92832C7.29021 5.21102 6.67008 5.62537 6.14773 6.14773C5.62537 6.67008 5.21102 7.29021 4.92832 7.9727C4.64562 8.65519 4.50012 9.38668 4.50012 10.1254C4.50012 10.8641 4.64562 11.5956 4.92832 12.2781C5.21102 12.9606 5.62537 13.5807 6.14773 14.1031C6.67008 14.6254 7.29021 15.0398 7.9727 15.3225C8.65519 15.6052 9.38668 15.7507 10.1254 15.7507Z" fill="#13131D"/>
</svg>
