<svg width="24" height="24" viewBox="0 0 24 24" fill="none" xmlns="http://www.w3.org/2000/svg">
<path d="M21.4534 2.21885C21.8479 2.49223 22.0548 2.96479 21.9806 3.43735L19.4812 19.684C19.4226 20.0628 19.1922 20.3948 18.8563 20.5822C18.5204 20.7697 18.1182 20.7931 17.7628 20.6447L13.0919 18.7037L10.4166 21.5976C10.069 21.9765 9.52229 22.1015 9.04192 21.914C8.56155 21.7265 8.24911 21.2618 8.24911 20.7463V17.4813C8.24911 17.3251 8.30769 17.1767 8.41314 17.0634L14.9587 9.92038C15.1852 9.67434 15.1774 9.29551 14.943 9.06119C14.7087 8.82686 14.3299 8.81124 14.0838 9.03385L6.14017 16.091L2.69167 14.3648C2.27769 14.1578 2.01212 13.7438 2.00041 13.283C1.98869 12.8221 2.23083 12.3925 2.62918 12.1621L20.1256 2.16418C20.5434 1.92595 21.059 1.94938 21.4534 2.21885Z" fill="#13131D"/>
</svg>
