<svg width="24" height="25" viewBox="0 0 24 25" fill="none" xmlns="http://www.w3.org/2000/svg">
<path d="M21.802 9.11309C21.927 9.453 21.8216 9.83198 21.552 10.0742L19.8602 11.6136C19.9032 11.9379 19.9267 12.27 19.9267 12.606C19.9267 12.942 19.9032 13.2741 19.8602 13.5983L21.552 15.1377C21.8216 15.3799 21.927 15.7589 21.802 16.0988C21.6301 16.5638 21.423 17.0092 21.1847 17.4389L21.0011 17.7554C20.7432 18.1852 20.4541 18.5915 20.1376 18.9744C19.9071 19.2557 19.5242 19.3495 19.1804 19.2401L17.0042 18.5485C16.4807 18.9509 15.9024 19.287 15.2851 19.5409L14.7967 21.7718C14.7186 22.1273 14.4451 22.4087 14.0857 22.4673C13.5465 22.5571 12.9917 22.604 12.4252 22.604C11.8587 22.604 11.3039 22.5571 10.7647 22.4673C10.4053 22.4087 10.1318 22.1273 10.0536 21.7718L9.56526 19.5409C8.94795 19.287 8.36971 18.9509 7.84617 18.5485L5.67387 19.244C5.33005 19.3534 4.94717 19.2557 4.71665 18.9783C4.40019 18.5954 4.11107 18.1891 3.8532 17.7593L3.66957 17.4428C3.43125 17.0131 3.22417 16.5677 3.05227 16.1027C2.92724 15.7628 3.03273 15.3838 3.30232 15.1416L4.99405 13.6022C4.95107 13.2741 4.92763 12.942 4.92763 12.606C4.92763 12.27 4.95107 11.9379 4.99405 11.6136L3.30232 10.0742C3.03273 9.83198 2.92724 9.453 3.05227 9.11309C3.22417 8.64815 3.43125 8.20275 3.66957 7.77298L3.8532 7.45651C4.11107 7.02674 4.40019 6.62041 4.71665 6.23753C4.94717 5.95622 5.33005 5.86245 5.67387 5.97185L7.85008 6.66339C8.37362 6.26097 8.95186 5.92497 9.56916 5.67101L10.0575 3.4401C10.1357 3.08457 10.4092 2.80326 10.7686 2.74466C11.3078 2.65089 11.8626 2.604 12.4291 2.604C12.9956 2.604 13.5504 2.65089 14.0896 2.74075C14.449 2.79935 14.7225 3.08066 14.8007 3.4362L15.289 5.6671C15.9063 5.92106 16.4846 6.25706 17.0081 6.65948L19.1843 5.96794C19.5281 5.85855 19.911 5.95622 20.1415 6.23362C20.458 6.61651 20.7471 7.02284 21.005 7.45261L21.1886 7.76908C21.4269 8.19885 21.634 8.64425 21.8059 9.10918L21.802 9.11309ZM12.4291 15.7316C13.2581 15.7316 14.0531 15.4023 14.6392 14.8161C15.2254 14.2299 15.5547 13.4349 15.5547 12.606C15.5547 11.777 15.2254 10.982 14.6392 10.3958C14.0531 9.80965 13.2581 9.48035 12.4291 9.48035C11.6001 9.48035 10.8051 9.80965 10.219 10.3958C9.63279 10.982 9.30349 11.777 9.30349 12.606C9.30349 13.4349 9.63279 14.2299 10.219 14.8161C10.8051 15.4023 11.6001 15.7316 12.4291 15.7316Z" fill="#13131D"/>
</svg>
