<svg width="24" height="24" viewBox="0 0 24 24" fill="none" xmlns="http://www.w3.org/2000/svg">
<path d="M16 4C15.5969 4 15.2312 4.24375 15.075 4.61875C14.9187 4.99375 15.0062 5.42188 15.2906 5.70938L16.5844 7L11.2937 12.2937C10.9031 12.6844 10.9031 13.3188 11.2937 13.7094C11.6844 14.1 12.3187 14.1 12.7094 13.7094L18 8.41563L19.2937 9.70937C19.5813 9.99687 20.0094 10.0813 20.3844 9.925C20.7594 9.76875 21.0031 9.40625 21.0031 9V5C21.0031 4.44687 20.5563 4 20.0031 4H16ZM7.5 5C6.11875 5 5 6.11875 5 7.5V17.5C5 18.8813 6.11875 20 7.5 20H17.5C18.8813 20 20 18.8813 20 17.5V14C20 13.4469 19.5531 13 19 13C18.4469 13 18 13.4469 18 14V17.5C18 17.775 17.775 18 17.5 18H7.5C7.225 18 7 17.775 7 17.5V7.5C7 7.225 7.225 7 7.5 7H11C11.5531 7 12 6.55312 12 6C12 5.44687 11.5531 5 11 5H7.5Z" fill="#13131D"/>
</svg>
