<svg width="24" height="24" viewBox="0 0 24 24" fill="none" xmlns="http://www.w3.org/2000/svg">
<path d="M17.057 16.0342C16.1005 16.0342 15.2524 15.8399 14.5126 15.455C13.7728 15.0702 13.19 14.5359 12.7641 13.8522C12.3381 13.1722 12.1289 12.3951 12.1289 11.5246C12.1289 10.654 12.3419 9.86194 12.7641 9.18195C13.1863 8.50196 13.7691 7.96768 14.5126 7.57911C15.2524 7.19428 16.1005 7 17.057 7C18.0134 7 18.8616 7.19428 19.6088 7.57911C20.356 7.96394 20.9389 8.49822 21.3648 9.18195C21.787 9.86194 22 10.6428 22 11.5246C22 12.4063 21.787 13.1685 21.3648 13.8522C20.9389 14.5322 20.356 15.0665 19.6088 15.455C18.8616 15.8399 18.0134 16.0342 17.057 16.0342ZM17.057 13.6019C17.4007 13.6019 17.7108 13.5197 17.9836 13.359C18.2563 13.1984 18.4767 12.9593 18.6449 12.6417C18.813 12.3241 18.8952 11.9467 18.8952 11.5059C18.8952 11.065 18.813 10.6802 18.6449 10.3775C18.4767 10.0786 18.26 9.84699 17.9836 9.68634C17.7108 9.52568 17.4007 9.44348 17.057 9.44348C16.7132 9.44348 16.4069 9.52194 16.1304 9.68634C15.8576 9.84699 15.6372 10.0786 15.4691 10.3775C15.301 10.6764 15.2188 11.0538 15.2188 11.5059C15.2188 11.958 15.301 12.3241 15.4691 12.6417C15.6335 12.9593 15.8539 13.1984 16.1304 13.359C16.4069 13.5197 16.7132 13.6019 17.057 13.6019Z" fill="#13131D"/>
<path d="M6.63664 16.0306C6.40873 15.997 6.19577 15.926 6.00148 15.8102C5.72874 15.6495 5.5083 15.4104 5.34017 15.0929C5.17204 14.7753 5.08985 14.3979 5.08985 13.957C5.08985 13.5162 5.17204 13.1313 5.34017 12.8287C5.50457 12.5298 5.725 12.2982 6.00148 12.1375C6.27423 11.9769 6.58433 11.8947 6.92806 11.8947C7.27179 11.8947 7.5819 11.9731 7.85465 12.1375C8.12739 12.2982 8.34782 12.5298 8.51595 12.8287C8.68408 13.1276 8.76628 13.505 8.76628 13.957C8.76628 14.4091 8.68408 14.7753 8.51595 15.0929C8.34782 15.4104 8.13113 15.6495 7.85465 15.8102C7.66036 15.926 7.4474 15.997 7.21949 16.0306H11.3891C11.7104 15.4179 11.8711 14.7304 11.8711 13.9757C11.8711 13.094 11.6581 12.3131 11.2359 11.6331C10.81 10.9531 10.2271 10.4189 9.4799 10.0303C8.73265 9.64546 7.88453 9.45117 6.92806 9.45117C5.97159 9.45117 5.12347 9.64546 4.3837 10.0303C3.64393 10.4151 3.06109 10.9494 2.63516 11.6331C2.20923 12.3131 2 13.094 2 13.9757C2 14.7304 2.16066 15.4179 2.48197 16.0306H6.63664Z" fill="#13131D"/>
</svg>
