<svg width="19" height="26" viewBox="0 0 19 26" fill="none" xmlns="http://www.w3.org/2000/svg">
<path d="M10.0187 0.380762C9.51097 -0.126923 8.68649 -0.126923 8.17881 0.380762L0.38077 8.1788C-0.126915 8.68649 -0.126915 9.51097 0.38077 10.0187C0.888454 10.5263 1.71294 10.5263 2.22062 10.0187L9.10077 3.13851L15.9809 10.0146C16.4886 10.5223 17.3131 10.5223 17.8208 10.0146C18.3284 9.5069 18.3284 8.68242 17.8208 8.17474L10.0227 0.3767L10.0187 0.380762Z" fill="#13131D"/>
<path d="M8.18286 25.6191C8.69055 26.1268 9.51503 26.1268 10.0227 25.6191L17.8208 17.8211C18.3284 17.3134 18.3284 16.4889 17.8208 15.9812C17.3131 15.4735 16.4886 15.4735 15.9809 15.9812L9.10076 22.8614L2.22061 15.9853C1.71293 15.4776 0.888448 15.4776 0.380764 15.9853C-0.126921 16.493 -0.126921 17.3175 0.380763 17.8251L8.1788 25.6232L8.18286 25.6191Z" fill="#13131D"/>
</svg>
