<svg width="24" height="24" viewBox="0 0 24 24" fill="none" xmlns="http://www.w3.org/2000/svg">
<path d="M11.1357 2.41848C11.6937 1.86051 12.5999 1.86051 13.1578 2.41848L18.8715 8.13213C19.2821 8.5428 19.4027 9.15434 19.1795 9.68999C18.9563 10.2256 18.4385 10.5738 17.8582 10.5738H6.4309C5.85507 10.5738 5.33281 10.2256 5.10962 9.68999C4.88643 9.15434 5.01141 8.5428 5.41762 8.13213L11.1313 2.41848H11.1357ZM11.1357 21.5815L5.42208 15.8679C5.01141 15.4572 4.89089 14.8457 5.11408 14.31C5.33727 13.7744 5.85507 13.4262 6.43536 13.4262H17.8582C18.434 13.4262 18.9563 13.7744 19.1795 14.31C19.4027 14.8457 19.2777 15.4572 18.8715 15.8679L13.1578 21.5815C12.5999 22.1395 11.6937 22.1395 11.1357 21.5815Z" fill="#13131D"/>
</svg>
