<svg width="20" height="20" viewBox="0 0 20 20" fill="none" xmlns="http://www.w3.org/2000/svg">
<path d="M11.0881 0.703125C10.8873 0.273438 10.4631 0 9.99728 0C9.53142 0 9.11101 0.273438 8.90649 0.703125L6.47114 5.87109L1.03233 6.69922C0.577834 6.76953 0.199086 7.09766 0.05895 7.54688C-0.0811866 7.99609 0.0324375 8.49219 0.35816 8.82422L4.30471 12.8516L3.37299 18.543C3.29724 19.0117 3.48661 19.4883 3.86157 19.7656C4.23653 20.043 4.73269 20.0781 5.14174 19.8555L10.0011 17.1797L14.8604 19.8555C15.2694 20.0781 15.7656 20.0469 16.1406 19.7656C16.5155 19.4844 16.7049 19.0117 16.6291 18.543L15.6936 12.8516L19.6402 8.82422C19.9659 8.49219 20.0833 7.99609 19.9394 7.54688C19.7955 7.09766 19.4205 6.76953 18.966 6.69922L13.5234 5.87109L11.0881 0.703125Z" fill="#13131D"/>
</svg>
