<svg width="24" height="24" viewBox="0 0 24 24" fill="none" xmlns="http://www.w3.org/2000/svg">
<path d="M3.25342 5.75071H15.7485V3.25169C15.7485 2.74798 16.0531 2.29112 16.5217 2.09589C16.9902 1.90065 17.5252 2.00998 17.8844 2.36531L21.633 6.11385C21.8672 6.34813 22 6.66442 22 6.99632C22 7.32822 21.8672 7.6445 21.633 7.87879L17.8844 11.6273C17.5252 11.9866 16.9902 12.092 16.5217 11.8967C16.0531 11.7015 15.7485 11.2486 15.7485 10.7409V8.24973H3.25342C2.56228 8.24973 2.0039 7.69136 2.0039 7.00022C2.0039 6.30909 2.56228 5.75071 3.25342 5.75071ZM20.7466 15.7468C21.4377 15.7468 21.9961 16.3052 21.9961 16.9963C21.9961 17.6875 21.4377 18.2458 20.7466 18.2458H8.25147V20.7449C8.25147 21.2486 7.9469 21.7054 7.47833 21.9007C7.00976 22.0959 6.47482 21.9866 6.11558 21.6312L2.36704 17.8827C2.13276 17.6484 2 17.3321 2 17.0002C2 16.6683 2.13276 16.352 2.36704 16.1178L6.11558 12.3692C6.47482 12.01 7.00976 11.9046 7.47833 12.0998C7.9469 12.295 8.25147 12.748 8.25147 13.2556V15.7546H20.7466V15.7468Z" fill="#13131D"/>
</svg>
