<svg width="24" height="24" viewBox="0 0 24 24" fill="none" xmlns="http://www.w3.org/2000/svg">
<path d="M8.28125 2.69141L8 3.25H4.25C3.55859 3.25 3 3.80859 3 4.5C3 5.19141 3.55859 5.75 4.25 5.75H19.25C19.9414 5.75 20.5 5.19141 20.5 4.5C20.5 3.80859 19.9414 3.25 19.25 3.25H15.5L15.2188 2.69141C15.0078 2.26563 14.5742 2 14.1016 2H9.39844C8.92578 2 8.49219 2.26563 8.28125 2.69141ZM19.25 7H4.25L5.07812 20.2422C5.14062 21.2305 5.96094 22 6.94922 22H16.5508C17.5391 22 18.3594 21.2305 18.4219 20.2422L19.25 7Z" fill="#13131D"/>
</svg>
