<svg width="24" height="24" viewBox="0 0 24 24" fill="none" xmlns="http://www.w3.org/2000/svg">
<path d="M8.625 7.625C8.625 5.89844 10.0234 4.5 11.75 4.5C12.9961 4.5 14.0703 5.22656 14.5742 6.28516C14.8711 6.91016 15.6172 7.17578 16.2383 6.87891C16.8594 6.58203 17.1289 5.83594 16.832 5.21484C15.9297 3.31641 13.9961 2 11.75 2C8.64453 2 6.125 4.51953 6.125 7.625V9.5H5.5C4.12109 9.5 3 10.6211 3 12V19.5C3 20.8789 4.12109 22 5.5 22H18C19.3789 22 20.5 20.8789 20.5 19.5V12C20.5 10.6211 19.3789 9.5 18 9.5H8.625V7.625Z" fill="#13131D"/>
</svg>
