<svg width="24" height="24" viewBox="0 0 24 24" fill="none" xmlns="http://www.w3.org/2000/svg">
<path d="M13.25 6.26855V15.749C13.25 16.4404 12.6914 16.999 12 16.999C11.3086 16.999 10.75 16.4404 10.75 15.749V6.26855L7.88281 9.13574C7.39453 9.62402 6.60156 9.62402 6.11328 9.13574C5.625 8.64746 5.625 7.85449 6.11328 7.36621L11.1133 2.36621C11.6016 1.87793 12.3945 1.87793 12.8828 2.36621L17.8828 7.36621C18.3711 7.85449 18.3711 8.64746 17.8828 9.13574C17.3945 9.62402 16.6016 9.62402 16.1133 9.13574L13.25 6.26855ZM4.5 15.749H9.5C9.5 17.1279 10.6211 18.249 12 18.249C13.3789 18.249 14.5 17.1279 14.5 15.749H19.5C20.8789 15.749 22 16.8701 22 18.249V19.499C22 20.8779 20.8789 21.999 19.5 21.999H4.5C3.12109 21.999 2 20.8779 2 19.499V18.249C2 16.8701 3.12109 15.749 4.5 15.749ZM18.875 19.8115C19.1236 19.8115 19.3621 19.7128 19.5379 19.5369C19.7137 19.3611 19.8125 19.1227 19.8125 18.874C19.8125 18.6254 19.7137 18.3869 19.5379 18.2111C19.3621 18.0353 19.1236 17.9365 18.875 17.9365C18.6264 17.9365 18.3879 18.0353 18.2121 18.2111C18.0363 18.3869 17.9375 18.6254 17.9375 18.874C17.9375 19.1227 18.0363 19.3611 18.2121 19.5369C18.3879 19.7128 18.6264 19.8115 18.875 19.8115Z" fill="#13131D"/>
</svg>
