<svg width="24" height="24" viewBox="0 0 24 24" fill="none" xmlns="http://www.w3.org/2000/svg">
<path d="M11.75 12C13.0761 12 14.3479 11.4732 15.2855 10.5355C16.2232 9.59785 16.75 8.32608 16.75 7C16.75 5.67392 16.2232 4.40215 15.2855 3.46447C14.3479 2.52678 13.0761 2 11.75 2C10.4239 2 9.15215 2.52678 8.21447 3.46447C7.27678 4.40215 6.75 5.67392 6.75 7C6.75 8.32608 7.27678 9.59785 8.21447 10.5355C9.15215 11.4732 10.4239 12 11.75 12ZM9.96484 13.875C6.11719 13.875 3 16.9922 3 20.8398C3 21.4805 3.51953 22 4.16016 22H19.3398C19.9805 22 20.5 21.4805 20.5 20.8398C20.5 16.9922 17.3828 13.875 13.5352 13.875H9.96484Z" fill="#13131D"/>
</svg>
