<svg width="24" height="24" viewBox="0 0 24 24" fill="none" xmlns="http://www.w3.org/2000/svg">
<path d="M15.442 2.12415C15.9554 2.35629 16.2857 2.86522 16.2857 3.42772V20.5706C16.2857 21.1331 15.9554 21.642 15.442 21.8741C14.9286 22.1063 14.3259 22.0125 13.9063 21.6375L7.88393 16.2849H4.85714C3.28125 16.2849 2 15.0036 2 13.4277V10.5706C2 8.99468 3.28125 7.71343 4.85714 7.71343H7.88393L13.9063 2.36075C14.3259 1.98575 14.9286 1.89647 15.442 2.12415ZM20.4196 8.67325C21.3795 9.45897 22 10.6554 22 11.9991C22 13.3429 21.3795 14.5393 20.4196 15.325C19.9598 15.7 19.2857 15.6286 18.9107 15.1688C18.5357 14.709 18.6071 14.0349 19.067 13.6599C19.5491 13.267 19.8571 12.6688 19.8571 11.9991C19.8571 11.3295 19.5491 10.7313 19.067 10.334C18.6071 9.95897 18.5402 9.28486 18.9107 8.82504C19.2812 8.36522 19.9598 8.29825 20.4196 8.66879V8.67325Z" fill="#13131D"/>
</svg>
