<svg width="24" height="24" viewBox="0 0 24 24" fill="none" xmlns="http://www.w3.org/2000/svg">
<path d="M4.5 3C3.12109 3 2 4.12109 2 5.5V18C2 19.3789 3.12109 20.5 4.5 20.5H19.5C20.8789 20.5 22 19.3789 22 18V9.25C22 7.87109 20.8789 6.75 19.5 6.75H5.125C4.78125 6.75 4.5 6.46875 4.5 6.125C4.5 5.78125 4.78125 5.5 5.125 5.5H19.5C20.1914 5.5 20.75 4.94141 20.75 4.25C20.75 3.55859 20.1914 3 19.5 3H4.5ZM18.25 12.375C18.5815 12.375 18.8995 12.5067 19.1339 12.7411C19.3683 12.9755 19.5 13.2935 19.5 13.625C19.5 13.9565 19.3683 14.2745 19.1339 14.5089C18.8995 14.7433 18.5815 14.875 18.25 14.875C17.9185 14.875 17.6005 14.7433 17.3661 14.5089C17.1317 14.2745 17 13.9565 17 13.625C17 13.2935 17.1317 12.9755 17.3661 12.7411C17.6005 12.5067 17.9185 12.375 18.25 12.375Z" fill="#13131D"/>
</svg>
