<svg width="26" height="23" viewBox="0 0 26 23" fill="none" xmlns="http://www.w3.org/2000/svg">
<path d="M12.9991 0C13.7202 0 14.3855 0.380887 14.7511 1.00554L25.7207 19.6944C26.0914 20.3241 26.0914 21.1011 25.7308 21.7309C25.3703 22.3606 24.6948 22.7516 23.9686 22.7516H2.02952C1.3033 22.7516 0.627858 22.3606 0.267285 21.7309C-0.0932873 21.1011 -0.0882088 20.319 0.277442 19.6944L11.247 1.00554C11.6126 0.380887 12.2779 0 12.9991 0ZM12.9991 6.50047C12.3236 6.50047 11.7802 7.04386 11.7802 7.7193V13.4072C11.7802 14.0826 12.3236 14.626 12.9991 14.626C13.6745 14.626 14.2179 14.0826 14.2179 13.4072V7.7193C14.2179 7.04386 13.6745 6.50047 12.9991 6.50047ZM14.6242 17.8763C14.6242 17.4453 14.453 17.0319 14.1482 16.7271C13.8434 16.4224 13.4301 16.2512 12.9991 16.2512C12.568 16.2512 12.1547 16.4224 11.8499 16.7271C11.5452 17.0319 11.3739 17.4453 11.3739 17.8763C11.3739 18.3073 11.5452 18.7206 11.8499 19.0254C12.1547 19.3302 12.568 19.5014 12.9991 19.5014C13.4301 19.5014 13.8434 19.3302 14.1482 19.0254C14.453 18.7206 14.6242 18.3073 14.6242 17.8763Z" fill="#13131D"/>
</svg>
