<svg width="24" height="24" viewBox="0 0 24 24" fill="none" xmlns="http://www.w3.org/2000/svg">
<path d="M3.69386 10.3416C5.85048 8.27245 8.776 7.00035 12.0016 7.00035C15.2271 7.00035 18.1526 8.27245 20.3093 10.3416C20.7093 10.7229 21.3407 10.7104 21.722 10.3134C22.1033 9.91649 22.0908 9.282 21.6939 8.90068C19.1809 6.48464 15.7647 5 12.0016 5C8.2384 5 4.82218 6.48464 2.30611 8.89756C1.90917 9.282 1.89667 9.91336 2.27798 10.3134C2.6593 10.7135 3.29379 10.726 3.69073 10.3416H3.69386ZM12.0016 12.0012C13.7769 12.0012 15.3959 12.6607 16.6336 13.7515C17.0493 14.1172 17.6807 14.0766 18.0464 13.664C18.4121 13.2514 18.3714 12.617 17.9589 12.2513C16.3711 10.851 14.2832 10.0009 12.0016 10.0009C9.71991 10.0009 7.63205 10.851 6.04739 12.2513C5.6317 12.617 5.59419 13.2483 5.95988 13.664C6.32557 14.0797 6.95693 14.1172 7.37263 13.7515C8.60722 12.6607 10.2263 12.0012 12.0047 12.0012H12.0016ZM14.0019 17.0021C14.0019 16.4716 13.7912 15.9628 13.416 15.5876C13.0409 15.2125 12.5321 15.0018 12.0016 15.0018C11.471 15.0018 10.9622 15.2125 10.5871 15.5876C10.212 15.9628 10.0012 16.4716 10.0012 17.0021C10.0012 17.5326 10.212 18.0414 10.5871 18.4166C10.9622 18.7917 11.471 19.0025 12.0016 19.0025C12.5321 19.0025 13.0409 18.7917 13.416 18.4166C13.7912 18.0414 14.0019 17.5326 14.0019 17.0021Z" fill="#13131D"/>
</svg>
