<svg width="24" height="24" viewBox="0 0 24 24" fill="none" xmlns="http://www.w3.org/2000/svg">
<path d="M20.4673 6.07403C21.1701 5.37123 21.1701 4.22989 20.4673 3.5271C19.7645 2.8243 18.6231 2.8243 17.9203 3.5271L12 9.45307L6.07403 3.53272C5.37123 2.82992 4.22989 2.82992 3.5271 3.53272C2.8243 4.23551 2.8243 5.37685 3.5271 6.07965L9.45307 12L3.53272 17.926C2.82992 18.6288 2.82992 19.7701 3.53272 20.4729C4.23551 21.1757 5.37685 21.1757 6.07965 20.4729L12 14.5469L17.926 20.4673C18.6288 21.1701 19.7701 21.1701 20.4729 20.4673C21.1757 19.7645 21.1757 18.6231 20.4729 17.9203L14.5469 12L20.4673 6.07403Z" fill="#13131D"/>
</svg>
